SplineFontDB: 3.2
FontName: OmeBhatkhandeHindi
FullName: Ome Bhatkhande Hindi
FamilyName: Ome Bhatkhande Hindi
Weight: Regular
Copyright: Omenad 2006-2017
Version: 1.01 Oct 5, 2022
ItalicAngle: 0
UnderlinePosition: -292
UnderlineWidth: 150
Ascent: 1638
Descent: 410
InvalidEm: 0
sfntRevision: 0x00010000
LayerCount: 2
Layer: 0 1 "Back" 1
Layer: 1 1 "Fore" 0
PreferredKerning: 4
XUID: [1021 365 -898263510 12670257]
StyleMap: 0x0000
FSType: 8
OS2Version: 1
OS2_WeightWidthSlopeOnly: 0
OS2_UseTypoMetrics: 0
CreationTime: 1192029071
ModificationTime: 1719512787
PfmFamily: 17
TTFWeight: 400
TTFWidth: 5
LineGap: 0
VLineGap: 0
Panose: 2 0 0 0 0 0 0 0 0 0
OS2TypoAscent: 3650
OS2TypoAOffset: 0
OS2TypoDescent: -3000
OS2TypoDOffset: 0
OS2TypoLinegap: 205
OS2WinAscent: 3650
OS2WinAOffset: 0
OS2WinDescent: 3000
OS2WinDOffset: 0
HheadAscent: 3650
HheadAOffset: 0
HheadDescent: -3000
HheadDOffset: 0
OS2SubXSize: 1434
OS2SubYSize: 1331
OS2SubXOff: 0
OS2SubYOff: 283
OS2SupXSize: 1000
OS2SupYSize: 2250
OS2SupXOff: 0
OS2SupYOff: 2800
OS2StrikeYSize: 102
OS2StrikeYPos: 530
OS2Vendor: 'OMND'
OS2CodePages: 6000019f.dff70000
OS2UnicodeRanges: a00002af.500078fb.00000000.00000000
Lookup: 258 0 0 "'kern' Horizontal Kerning in Latin lookup 0" { "'kern' Horizontal Kerning in Latin lookup 0 subtable"  } ['kern' ('latn' <'dflt' > ) ]
MarkAttachClasses: 1
DEI: 91125
ShortTable: maxp 16
  1
  0
  653
  192
  5
  0
  0
  0
  0
  0
  0
  0
  0
  0
  0
  0
EndShort
LangName: 1055 "" "" "Normal"
LangName: 1053 "" "" "Normal"
LangName: 2058 "" "" "Normal"
LangName: 1034 "" "" "Normal"
LangName: 3082 "" "" "Normal"
LangName: 1060 "" "" "Navadno"
LangName: 1051 "" "" "Norm+AOEA-lne"
LangName: 1049 "" "" "+BB4EMQRLBEcEPQRLBDkA"
LangName: 1046 "" "" "Normal"
LangName: 2070 "" "" "Normal"
LangName: 1045 "" "" "Normalny"
LangName: 1044 "" "" "Normal"
LangName: 1040 "" "" "Normale"
LangName: 1038 "" "" "Norm+AOEA-l"
LangName: 1032 "" "" "+A5oDsQO9A78DvQO5A7oDrAAA"
LangName: 1031 "" "" "Standard"

StartChar: .notdef
Encoding: 65536 -1 0
GlifName: _notdef
Width: 1582
Flags: W
LayerCount: 2
Fore
SplineSet
279 0 m 1,0,-1
 279 1280 l 1,1,-1
 1303 1280 l 1,2,-1
 1303 0 l 1,3,-1
 279 0 l 1,0,-1
311 32 m 1,4,-1
 1271 32 l 1,5,-1
 1271 1248 l 1,6,-1
 311 1248 l 1,7,-1
 311 32 l 1,4,-1
EndSplineSet
Validated: 1
EndChar

StartChar: exclam
Encoding: 33 33 4
GlifName: exclam
Width: 0
Flags: W
LayerCount: 2
Fore
SplineSet
8925 -2000 m 1,0,-1
 9097 -2000 l 1,1,2
 8741 -2191 8741 -2191 8265 -2319 c 0,3,4
 7586 -2502 7586 -2502 6664 -2601 c 128,-1,5
 5742 -2700 5742 -2700 4752 -2700 c 0,6,7
 3304 -2700 3304 -2700 2108.5 -2505.5 c 128,-1,8
 913 -2311 913 -2311 396 -2000 c 1,9,-1
 594 -2000 l 1,10,11
 913 -2155 913 -2155 1465 -2255.5 c 128,-1,12
 2017 -2356 2017 -2356 2864 -2405.5 c 128,-1,13
 3711 -2455 3711 -2455 4631 -2455 c 0,14,15
 5632 -2455 5632 -2455 6450 -2413 c 0,16,17
 7095 -2380 7095 -2380 7485.5 -2333 c 128,-1,18
 7876 -2286 7876 -2286 8235.5 -2207 c 128,-1,19
 8595 -2128 8595 -2128 8925 -2000 c 1,0,-1
EndSplineSet
Validated: 1
EndChar

StartChar: numbersign
Encoding: 35 35 6
GlifName: numbersign
Width: 7
Flags: W
LayerCount: 2
Fore
SplineSet
4273 -1200 m 1,0,-1
 4351 -1200 l 1,1,2
 4189 -1350 4189 -1350 3973 -1451 c 0,3,4
 3664 -1594 3664 -1594 3245 -1672 c 128,-1,5
 2826 -1750 2826 -1750 2376 -1750 c 0,6,7
 1718 -1750 1718 -1750 1174.5 -1597.5 c 128,-1,8
 631 -1445 631 -1445 396 -1200 c 1,9,-1
 486 -1200 l 1,10,11
 631 -1322 631 -1322 882 -1400.5 c 128,-1,12
 1133 -1479 1133 -1479 1518 -1518 c 128,-1,13
 1903 -1557 1903 -1557 2321 -1557 c 0,14,15
 2776 -1557 2776 -1557 3148 -1524 c 0,16,17
 3441 -1498 3441 -1498 3618.5 -1461.5 c 128,-1,18
 3796 -1425 3796 -1425 3959.5 -1362.5 c 128,-1,19
 4123 -1300 4123 -1300 4273 -1200 c 1,0,-1
EndSplineSet
Validated: 1
EndChar

StartChar: dollar
Encoding: 36 36 7
GlifName: dollar
Width: 7
Flags: W
LayerCount: 2
Fore
SplineSet
5823 -1200 m 1,0,-1
 5933 -1200 l 1,1,2
 5707 -1370 5707 -1370 5403 -1485 c 0,3,4
 4972 -1648 4972 -1648 4385 -1736.5 c 128,-1,5
 3798 -1825 3798 -1825 3168 -1825 c 0,6,7
 2246 -1825 2246 -1825 1485.5 -1651.5 c 128,-1,8
 725 -1478 725 -1478 396 -1200 c 1,9,-1
 522 -1200 l 1,10,11
 725 -1339 725 -1339 1076 -1428.5 c 128,-1,12
 1427 -1518 1427 -1518 1966 -1562 c 128,-1,13
 2505 -1606 2505 -1606 3091 -1606 c 0,14,15
 3728 -1606 3728 -1606 4248 -1569 c 0,16,17
 4659 -1539 4659 -1539 4907.5 -1497 c 128,-1,18
 5156 -1455 5156 -1455 5384.5 -1384.5 c 128,-1,19
 5613 -1314 5613 -1314 5823 -1200 c 1,0,-1
EndSplineSet
Validated: 1
EndChar

StartChar: percent
Encoding: 37 37 8
GlifName: percent
Width: 7
Flags: W
LayerCount: 2
Fore
SplineSet
7374 -1200 m 1,0,-1
 7515 -1200 l 1,1,2
 7224 -1370 7224 -1370 6834 -1485 c 0,3,4
 6279 -1648 6279 -1648 5524.5 -1736.5 c 128,-1,5
 4770 -1825 4770 -1825 3960 -1825 c 0,6,7
 2775 -1825 2775 -1825 1797 -1651.5 c 128,-1,8
 819 -1478 819 -1478 396 -1200 c 1,9,-1
 558 -1200 l 1,10,11
 819 -1339 819 -1339 1270.5 -1428.5 c 128,-1,12
 1722 -1518 1722 -1518 2415 -1562 c 128,-1,13
 3108 -1606 3108 -1606 3861 -1606 c 0,14,15
 4680 -1606 4680 -1606 5349 -1569 c 0,16,17
 5877 -1539 5877 -1539 6196.5 -1497 c 128,-1,18
 6516 -1455 6516 -1455 6810 -1384.5 c 128,-1,19
 7104 -1314 7104 -1314 7374 -1200 c 1,0,-1
EndSplineSet
Validated: 1
EndChar

StartChar: ampersand
Encoding: 38 38 9
GlifName: ampersand
Width: 7
Flags: W
LayerCount: 2
Fore
SplineSet
10475 -1200 m 1,0,-1
 10679 -1200 l 1,1,2
 10259 -1391 10259 -1391 9695 -1519 c 0,3,4
 8894 -1702 8894 -1702 7804 -1801 c 128,-1,5
 6714 -1900 6714 -1900 5544 -1900 c 0,6,7
 3832 -1900 3832 -1900 2419.5 -1705.5 c 128,-1,8
 1007 -1511 1007 -1511 396 -1200 c 1,9,-1
 630 -1200 l 1,10,11
 1007 -1355 1007 -1355 1659 -1455.5 c 128,-1,12
 2311 -1556 2311 -1556 3312 -1605.5 c 128,-1,13
 4313 -1655 4313 -1655 5401 -1655 c 0,14,15
 6584 -1655 6584 -1655 7550 -1613 c 0,16,17
 8313 -1580 8313 -1580 8774.5 -1533 c 128,-1,18
 9236 -1486 9236 -1486 9660.5 -1407 c 128,-1,19
 10085 -1328 10085 -1328 10475 -1200 c 1,0,-1
EndSplineSet
Validated: 1
EndChar

StartChar: quotesingle
Encoding: 39 39 10
GlifName: quotesingle
Width: 1582
VWidth: 575
Flags: W
LayerCount: 2
Fore
SplineSet
88.453125 1459.99804688 m 5,0,-1
 1116.27734375 1459.99804688 l 5,1,-1
 1362.95507812 1459.99804688 l 5,2,-1
 1460.59765625 1449.71972656 l 5,3,-1
 1491.43261719 1408.60644531 l 5,4,-1
 1532.546875 1316.10351562 l 5,5,-1
 1301.28613281 1316.10351562 l 5,6,-1
 1301.28613281 -312.998046875 l 5,7,-1
 1280.72851562 -302.719726562 l 6,8,9
 1244.75488281 -282.163085938 1244.75488281 -282.163085938 1229.33789062 -256.466796875 c 6,10,-1
 1224.19921875 -235.911132812 l 5,11,-1
 1219.06054688 -215.35546875 l 5,12,-1
 1213.92089844 -194.797851562 l 5,13,-1
 1183.08691406 -92.015625 l 6,14,15
 1147.11230469 15.904296875 1147.11230469 15.904296875 1034.05175781 134.104492188 c 4,16,17
 859.321289062 313.973632812 859.321289062 313.973632812 612.642578125 432.173828125 c 5,18,-1
 437.913085938 493.842773438 l 5,19,-1
 401.939453125 504.12109375 l 5,20,-1
 396.80078125 504.12109375 l 5,21,-1
 391.662109375 504.12109375 l 5,22,-1
 386.522460938 509.260742188 l 5,23,-1
 335.130859375 524.678710938 l 5,24,-1
 304.295898438 565.791015625 l 5,25,-1
 283.740234375 591.487304688 l 5,26,-1
 258.044921875 632.599609375 l 5,27,-1
 206.653320312 719.96484375 l 5,28,29
 540.696289062 935.807617188 540.696289062 935.807617188 761.678710938 1043.72851562 c 6,30,-1
 1003.21777344 1141.37304688 l 5,31,-1
 1044.33007812 1156.79101562 l 5,32,-1
 1064.88574219 1161.9296875 l 5,33,-1
 1126.5546875 1187.625 l 6,34,35
 1147.11230469 1203.04199219 1147.11230469 1203.04199219 1147.11230469 1259.57226562 c 6,36,-1
 1147.11230469 1264.7109375 l 5,37,-1
 1147.11230469 1269.85058594 l 5,38,-1
 1147.11230469 1274.98828125 l 5,39,-1
 1141.97265625 1285.26855469 l 5,40,-1
 1141.97265625 1316.10351562 l 5,41,-1
 443.052734375 1316.10351562 l 5,42,-1
 247.766601562 1316.10351562 l 5,43,-1
 160.40234375 1321.2421875 l 5,44,-1
 129.567382812 1367.49414062 l 5,45,-1
 88.453125 1459.99804688 l 5,0,-1
489.305664062 663.434570312 m 5,46,47
 571.53125 648.017578125 571.53125 648.017578125 689.73046875 565.791015625 c 4,48,49
 802.791015625 498.982421875 802.791015625 498.982421875 915.8515625 391.060546875 c 260,50,51
 1028.91308594 283.139648438 1028.91308594 283.139648438 1141.97265625 134.104492188 c 5,52,-1
 1141.97265625 987.19921875 l 5,53,54
 890.157226562 899.834960938 890.157226562 899.834960938 674.314453125 776.495117188 c 6,55,-1
 612.642578125 745.66015625 l 5,56,-1
 540.696289062 704.547851562 l 5,57,-1
 489.305664062 663.434570312 l 5,46,47
499.583007812 185.49609375 m 6,58,-1
 530.41796875 190.635742188 l 5,59,-1
 566.391601562 185.49609375 l 6,60,61
 669.173828125 164.939453125 669.173828125 164.939453125 679.452148438 41.6015625 c 4,62,63
 679.452148438 -76.59765625 679.452148438 -76.59765625 561.251953125 -102.293945312 c 6,64,-1
 530.41796875 -107.432617188 l 5,65,-1
 494.4453125 -102.293945312 l 6,66,67
 391.662109375 -81.73828125 391.662109375 -81.73828125 381.3828125 41.6015625 c 4,68,69
 381.3828125 159.80078125 381.3828125 159.80078125 499.583007812 185.49609375 c 6,58,-1
EndSplineSet
EndChar

StartChar: parenleft
Encoding: 40 40 11
GlifName: parenleft
Width: 791
Flags: W
LayerCount: 2
Fore
SplineSet
604 -439 m 1,0,1
 540 -380 540 -380 495 -334 c 128,-1,2
 450 -288 450 -288 415 -245 c 128,-1,3
 380 -202 380 -202 352.5 -159 c 128,-1,4
 325 -116 325 -116 298 -65 c 0,5,6
 149 216 149 216 149 546 c 0,7,8
 149 777 149 777 229 984 c 0,9,10
 257 1060 257 1060 290 1121.5 c 128,-1,11
 323 1183 323 1183 366 1240 c 128,-1,12
 409 1297 409 1297 466.5 1356.5 c 128,-1,13
 524 1416 524 1416 604 1488 c 1,14,-1
 642 1435 l 1,15,16
 587 1369 587 1369 547 1316 c 128,-1,17
 507 1263 507 1263 477.5 1212.5 c 128,-1,18
 448 1162 448 1162 426.5 1110 c 128,-1,19
 405 1058 405 1058 384 994 c 0,20,21
 356 894 356 894 340.5 784.5 c 128,-1,22
 325 675 325 675 325 546 c 0,23,24
 325 286 325 286 388 69 c 0,25,26
 409 -1 409 -1 430.5 -56.5 c 128,-1,27
 452 -112 452 -112 480.5 -165 c 128,-1,28
 509 -218 509 -218 548 -273.5 c 128,-1,29
 587 -329 587 -329 642 -396 c 1,30,-1
 604 -439 l 1,0,1
EndSplineSet
Validated: 1
EndChar

StartChar: parenright
Encoding: 41 41 12
GlifName: parenright
Width: 791
Flags: W
LayerCount: 2
Fore
SplineSet
149 -396 m 1,0,1
 204 -329 204 -329 243 -273.5 c 128,-1,2
 282 -218 282 -218 310.5 -165 c 128,-1,3
 339 -112 339 -112 360.5 -56.5 c 128,-1,4
 382 -1 382 -1 402 69 c 0,5,6
 466 286 466 286 466 546 c 0,7,8
 466 675 466 675 450.5 784.5 c 128,-1,9
 435 894 435 894 405 994 c 0,10,11
 386 1058 386 1058 364.5 1109 c 128,-1,12
 343 1160 343 1160 313.5 1211.5 c 128,-1,13
 284 1263 284 1263 244 1316 c 128,-1,14
 204 1369 204 1369 149 1435 c 1,15,-1
 187 1488 l 1,16,17
 267 1416 267 1416 324.5 1355.5 c 128,-1,18
 382 1295 382 1295 425 1238 c 128,-1,19
 468 1181 468 1181 501 1119.5 c 128,-1,20
 534 1058 534 1058 562 984 c 0,21,22
 642 777 642 777 642 544 c 0,23,24
 642 357 642 357 594 184 c 128,-1,25
 546 11 546 11 452 -138 c 0,26,27
 427 -175 427 -175 403.5 -209 c 128,-1,28
 380 -243 380 -243 349.5 -276.5 c 128,-1,29
 319 -310 319 -310 280 -350 c 128,-1,30
 241 -390 241 -390 187 -439 c 1,31,-1
 149 -396 l 1,0,1
EndSplineSet
Validated: 1
EndChar

StartChar: asterisk
Encoding: 42 42 13
GlifName: asterisk
Width: 7
Flags: W
LayerCount: 2
Fore
SplineSet
12026 -1200 m 1,0,-1
 12261 -1200 l 1,1,2
 11776 -1391 11776 -1391 11126 -1519 c 0,3,4
 10201 -1702 10201 -1702 8943.5 -1801 c 128,-1,5
 7686 -1900 7686 -1900 6336 -1900 c 0,6,7
 4361 -1900 4361 -1900 2731 -1705.5 c 128,-1,8
 1101 -1511 1101 -1511 396 -1200 c 1,9,-1
 666 -1200 l 1,10,11
 1101 -1355 1101 -1355 1853.5 -1455.5 c 128,-1,12
 2606 -1556 2606 -1556 3761 -1605.5 c 128,-1,13
 4916 -1655 4916 -1655 6171 -1655 c 0,14,15
 7536 -1655 7536 -1655 8651 -1613 c 0,16,17
 9531 -1580 9531 -1580 10063.5 -1533 c 128,-1,18
 10596 -1486 10596 -1486 11086 -1407 c 128,-1,19
 11576 -1328 11576 -1328 12026 -1200 c 1,0,-1
EndSplineSet
Validated: 1
EndChar

StartChar: plus
Encoding: 43 43 14
GlifName: plus
Width: 1582
Flags: W
LayerCount: 2
Fore
SplineSet
734 1052 m 1,0,-1
 849 1052 l 1,1,-1
 849 595 l 1,2,-1
 1308 595 l 1,3,-1
 1308 480 l 1,4,-1
 849 480 l 1,5,-1
 849 17 l 1,6,-1
 734 17 l 1,7,-1
 734 480 l 1,8,-1
 275 480 l 1,9,-1
 275 595 l 1,10,-1
 734 595 l 1,11,-1
 734 1052 l 1,0,-1
EndSplineSet
Validated: 1
EndChar

StartChar: comma
Encoding: 44 44 15
GlifName: comma
Width: 512
Flags: W
LayerCount: 2
Fore
SplineSet
446 223 m 1,0,1
 424 164 424 164 398.5 108.5 c 128,-1,2
 373 53 373 53 337 -6.5 c 128,-1,3
 301 -66 301 -66 254 -132.5 c 128,-1,4
 207 -199 207 -199 145 -279 c 1,5,-1
 61 -317 l 1,6,-1
 33 -295 l 1,7,8
 121 -147 121 -147 164 -36.5 c 128,-1,9
 207 74 207 74 217 190 c 1,10,11
 258 203 258 203 286.5 211 c 128,-1,12
 315 219 315 219 337.5 226 c 128,-1,13
 360 233 360 233 378.5 239.5 c 128,-1,14
 397 246 397 246 418 252 c 1,15,-1
 446 223 l 1,0,1
EndSplineSet
Validated: 1
EndChar

StartChar: hyphen
Encoding: 45 45 16
AltUni2: 0000ad.ffffffff.0
GlifName: hyphen
Width: 1582
Flags: W
LayerCount: 2
Fore
SplineSet
499 440 m 1,0,-1
 489 451 l 1,1,-1
 544 588 l 1,2,-1
 1083 588 l 1,3,-1
 1093 578 l 1,4,-1
 1032 440 l 1,5,-1
 499 440 l 1,0,-1
EndSplineSet
Validated: 1
EndChar

StartChar: zero
Encoding: 48 48 19
GlifName: zero
Width: 1582
Flags: W
LayerCount: 2
Fore
SplineSet
1074 455 m 0,0,1
 1014 387 1014 387 964 368 c 0,2,3
 930 356 930 356 850 356 c 0,4,5
 691 356 691 356 562 474 c 0,6,7
 421 603 421 603 421 775 c 0,8,9
 421 882 421 882 492 966 c 0,10,11
 579 1068 579 1068 719 1068 c 0,12,13
 878 1068 878 1068 1011 951 c 0,14,15
 1117 858 1117 858 1151 739 c 0,16,17
 1161 704 1161 704 1161 665 c 0,18,19
 1161 554 1161 554 1074 455 c 0,0,1
938 891 m 1,20,-1
 889 918 l 2,21,22
 864 928 864 928 841 928 c 0,23,24
 795 928 795 928 716 879 c 0,25,26
 599 807 599 807 599 649 c 0,27,28
 599 557 599 557 663 510 c 0,29,30
 690 490 690 490 727 490 c 0,31,32
 868 490 868 490 959 662 c 0,33,34
 993 727 993 727 993 784 c 0,35,36
 993 854 993 854 938 891 c 1,20,-1
EndSplineSet
Validated: 1
EndChar

StartChar: one
Encoding: 49 49 20
GlifName: one
Width: 307
VWidth: 575
Flags: W
LayerCount: 2
Fore
SplineSet
795.5 112.5 m 5,0,1
 835.5 200.5 835.5 200.5 839.5 248.5 c 4,2,3
 855.5 440.5 855.5 440.5 579.5 608.5 c 5,4,-1
 575.5 608.5 l 5,5,-1
 459.5 676.5 l 5,6,-1
 363.5 736.5 l 6,7,8
 203.5 852.5 203.5 852.5 179.5 980.5 c 4,9,10
 167.5 1056.5 167.5 1056.5 195.5 1104.5 c 4,11,12
 231.5 1168.5 231.5 1168.5 307.5 1168.5 c 4,13,14
 367.5 1168.5 367.5 1168.5 403.5 1124.5 c 4,15,16
 435.5 1088.5 435.5 1088.5 439.5 1036.5 c 6,17,-1
 431.5 992.5 l 5,18,-1
 419.5 964.5 l 5,19,-1
 407.5 932.5 l 5,20,-1
 415.5 912.5 l 5,21,-1
 431.5 880.5 l 5,22,-1
 447.5 852.5 l 6,23,24
 503.5 776.5 503.5 776.5 647.5 668.5 c 5,25,-1
 655.5 664.5 l 5,26,-1
 659.5 660.5 l 6,27,28
 727.5 608.5 727.5 608.5 763.5 576.5 c 4,29,30
 903.5 456.5 903.5 456.5 919.5 324.5 c 4,31,32
 923.5 264.5 923.5 264.5 911.5 196.5 c 4,33,34
 867.5 -47.5 867.5 -47.5 659.5 -167.5 c 6,35,-1
 587.5 -203.5 l 6,36,37
 531.5 -223.5 531.5 -223.5 475.5 -227.5 c 4,38,39
 359.5 -235.5 359.5 -235.5 315.5 -155.5 c 6,40,-1
 307.5 -135.5 l 5,41,-1
 303.5 -115.5 l 5,42,-1
 299.5 -87.5 l 5,43,-1
 303.5 -59.5 l 6,44,45
 327.5 92.5 327.5 92.5 499.5 168.5 c 4,46,47
 527.5 180.5 527.5 180.5 555.5 188.5 c 4,48,49
 567.5 188.5 567.5 188.5 579.5 192.5 c 6,50,-1
 647.5 196.5 l 5,51,-1
 651.5 196.5 l 6,52,53
 715.5 192.5 715.5 192.5 755.5 160.5 c 4,54,55
 775.5 144.5 775.5 144.5 795.5 112.5 c 5,0,1
EndSplineSet
EndChar

StartChar: two
Encoding: 50 50 21
GlifName: two
Width: 307
VWidth: 575
Flags: W
LayerCount: 2
Fore
SplineSet
57 474.5 m 5,0,-1
 169 410.5 l 5,1,-1
 177 402.5 l 5,2,-1
 257 354.5 l 6,3,4
 341 314.5 341 314.5 449 310.5 c 6,5,-1
 461 310.5 l 5,6,-1
 601 318.5 l 5,7,-1
 633 326.5 l 6,8,9
 773 362.5 773 362.5 781 466.5 c 6,10,-1
 781 494.5 l 5,11,-1
 777 522.5 l 5,12,-1
 769 542.5 l 6,13,14
 761 562.5 761 562.5 753 574.5 c 4,15,16
 701 662.5 701 662.5 521 730.5 c 5,17,-1
 517 734.5 l 6,18,19
 521 734.5 521 734.5 477 750.5 c 6,20,-1
 397 782.5 l 6,21,22
 309 826.5 309 826.5 269 874.5 c 4,23,24
 233 918.5 233 918.5 229 978.5 c 4,25,26
 217 1082.5 217 1082.5 305 1122.5 c 6,27,-1
 325 1130.5 l 5,28,-1
 349 1134.5 l 5,29,-1
 405 1126.5 l 5,30,31
 493 1086.5 493 1086.5 489 990.5 c 5,32,-1
 477 942.5 l 5,33,-1
 469 926.5 l 5,34,-1
 465 910.5 l 5,35,-1
 489 870.5 l 5,36,-1
 497 858.5 l 6,37,38
 541 814.5 541 814.5 645 746.5 c 5,39,-1
 645 746.5 l 5,40,41
 781 662.5 781 662.5 825 594.5 c 4,42,43
 865 538.5 865 538.5 861 466.5 c 4,44,45
 857 378.5 857 378.5 801 306.5 c 4,46,47
 729 210.5 729 210.5 593 170.5 c 4,48,49
 557 162.5 557 162.5 525 158.5 c 5,50,-1
 697 10.5 l 5,51,-1
 905 -197.5 l 5,52,-1
 1049 -361.5 l 5,53,-1
 1081 -437.5 l 5,54,-1
 953 -333.5 l 5,55,-1
 945 -329.5 l 5,56,-1
 889 -281.5 l 6,57,58
 697 -129.5 697 -129.5 521 -13.5 c 6,59,-1
 281 134.5 l 5,60,-1
 245 154.5 l 5,61,-1
 209 174.5 l 6,62,63
 177 190.5 177 190.5 165 206.5 c 6,64,-1
 137 270.5 l 5,65,-1
 133 274.5 l 5,66,-1
 133 278.5 l 5,67,-1
 125 302.5 l 5,68,-1
 57 474.5 l 5,0,-1
EndSplineSet
EndChar

StartChar: three
Encoding: 51 51 22
GlifName: three
Width: 307
VWidth: 575
Flags: W
LayerCount: 2
Fore
SplineSet
623.5 753 m 1,0,-1
 667.5 689 l 2,1,2
 691.5 645 691.5 645 691.5 593 c 0,3,4
 691.5 537 691.5 537 663.5 493 c 0,5,6
 611.5 397 611.5 397 495.5 397 c 0,7,8
 355.5 397 355.5 397 311.5 517 c 0,9,10
 291.5 561 291.5 561 295.5 613 c 0,11,12
 299.5 769 299.5 769 431.5 853 c 0,13,14
 487.5 889 487.5 889 567.5 901 c 0,15,16
 599.5 905 599.5 905 635.5 901 c 0,17,18
 859.5 877 859.5 877 975.5 637 c 1,19,-1
 1007.5 549 l 2,20,21
 1039.5 441 1039.5 441 999.5 109 c 1,22,-1
 1039.5 325 l 1,23,24
 1039.5 209 1039.5 209 999.5 109 c 0,25,26
 919.5 -91 919.5 -91 731.5 -147 c 0,27,28
 643.5 -175 643.5 -175 555.5 -155 c 0,29,30
 511.5 -143 511.5 -143 455.5 -111 c 0,31,32
 339.5 -47 339.5 -47 243.5 125 c 0,33,34
 231.5 145 231.5 145 219.5 165 c 0,35,36
 151.5 281 151.5 281 75.5 477 c 2,37,-1
 31.5 581 l 2,38,39
 23.5 601 23.5 601 -52.5 789 c 2,40,-1
 -0.5 653 l 1,41,-1
 -52.5 789 l 1,42,-1
 -24.5 777 l 2,43,44
 -0.5 769 -0.5 769 11.5 757 c 0,45,46
 31.5 745 31.5 745 47.5 709 c 2,47,-1
 59.5 685 l 1,48,-1
 95.5 609 l 1,49,-1
 127.5 537 l 1,50,-1
 195.5 385 l 2,51,52
 347.5 77 347.5 77 543.5 25 c 1,53,-1
 595.5 17 l 2,54,55
 647.5 9 647.5 9 703.5 29 c 2,56,-1
 791.5 65 l 1,57,58
 979.5 185 979.5 185 955.5 433 c 0,59,60
 951.5 473 951.5 473 939.5 513 c 2,61,-1
 935.5 529 l 2,62,63
 891.5 689 891.5 689 767.5 741 c 2,64,-1
 735.5 753 l 1,65,-1
 679.5 761 l 1,66,-1
 643.5 757 l 1,67,-1
 623.5 753 l 1,0,-1
EndSplineSet
EndChar

StartChar: four
Encoding: 52 52 23
GlifName: four
Width: 307
VWidth: 575
Flags: W
LayerCount: 2
Fore
SplineSet
409 343.5 m 5,0,1
 213 415.5 213 415.5 157 583.5 c 4,2,3
 137 639.5 137 639.5 141 703.5 c 6,4,-1
 161 783.5 l 6,5,6
 181 835.5 181 835.5 213 867.5 c 4,7,8
 257 919.5 257 919.5 309 947.5 c 4,9,10
 385 991.5 385 991.5 461 1003.5 c 6,11,-1
 565 1007.5 l 5,12,13
 789 987.5 789 987.5 873 827.5 c 4,14,15
 889 795.5 889 795.5 897 759.5 c 6,16,-1
 905 719.5 l 5,17,-1
 905 679.5 l 6,18,19
 901 631.5 901 631.5 881 583.5 c 4,20,21
 845 499.5 845 499.5 717 415.5 c 5,22,-1
 717 415.5 l 5,23,-1
 685 395.5 l 5,24,25
 797 347.5 797 347.5 865 255.5 c 4,26,27
 933 167.5 933 167.5 933 79.5 c 6,28,-1
 921 -12.5 l 5,29,30
 861 -204.5 861 -204.5 625 -252.5 c 4,31,32
 581 -260.5 581 -260.5 537 -260.5 c 4,33,34
 393 -260.5 393 -260.5 285 -196.5 c 4,35,36
 133 -100.5 133 -100.5 141 55.5 c 4,37,38
 145 75.5 145 75.5 149 95.5 c 6,39,-1
 165 139.5 l 6,40,41
 181 183.5 181 183.5 213 211.5 c 4,42,43
 257 259.5 257 259.5 365 319.5 c 5,44,-1
 369 319.5 l 5,45,46
 393 335.5 393 335.5 409 343.5 c 5,0,1
277 691.5 m 4,47,48
 297 559.5 297 559.5 477 479.5 c 5,49,-1
 481 479.5 l 5,50,-1
 489 475.5 l 5,51,-1
 517 459.5 l 5,52,-1
 549 447.5 l 5,53,-1
 589 443.5 l 6,54,55
 609 447.5 609 447.5 641 471.5 c 5,56,57
 617 451.5 617 451.5 665 491.5 c 4,58,59
 785 603.5 785 603.5 765 723.5 c 4,60,61
 745 867.5 745 867.5 609 923.5 c 4,62,63
 565 939.5 565 939.5 517 939.5 c 6,64,-1
 509 939.5 l 6,65,66
 369 931.5 369 931.5 301 815.5 c 4,67,68
 269 755.5 269 755.5 277 691.5 c 4,47,48
281 11.5 m 4,69,70
 301 -124.5 301 -124.5 445 -176.5 c 4,71,72
 489 -192.5 489 -192.5 537 -192.5 c 6,73,-1
 597 -184.5 l 6,74,75
 737 -160.5 737 -160.5 785 -36.5 c 4,76,77
 797 3.5 797 3.5 793 47.5 c 6,78,-1
 793 55.5 l 6,79,80
 781 179.5 781 179.5 597 267.5 c 4,81,82
 585 271.5 585 271.5 561 283.5 c 6,83,-1
 557 283.5 l 5,84,-1
 549 287.5 l 5,85,-1
 505 299.5 l 5,86,-1
 477 291.5 l 5,87,-1
 473 287.5 l 5,88,-1
 445 271.5 l 5,89,-1
 421 255.5 l 6,90,91
 265 147.5 265 147.5 281 11.5 c 4,69,70
EndSplineSet
EndChar

StartChar: five
Encoding: 53 53 24
GlifName: five
Width: 307
VWidth: 575
Flags: W
LayerCount: 2
Fore
SplineSet
880.5 -195.5 m 1,0,1
 752.5 -263.5 752.5 -263.5 592.5 -255.5 c 0,2,3
 308.5 -243.5 308.5 -243.5 152.5 -43.5 c 0,4,5
 88.5 36.5 88.5 36.5 64.5 136.5 c 2,6,-1
 52.5 248.5 l 2,7,8
 52.5 328.5 52.5 328.5 72.5 416.5 c 0,9,10
 148.5 720.5 148.5 720.5 412.5 892.5 c 0,11,12
 572.5 996.5 572.5 996.5 748.5 1004.5 c 1,13,-1
 748.5 972.5 l 2,14,15
 752.5 760.5 752.5 760.5 860.5 664.5 c 1,16,-1
 924.5 624.5 l 2,17,18
 960.5 604.5 960.5 604.5 1008.5 596.5 c 1,19,-1
 1008.5 588.5 l 1,20,21
 780.5 552.5 780.5 552.5 656.5 332.5 c 0,22,23
 616.5 268.5 616.5 268.5 600.5 196.5 c 2,24,-1
 584.5 100.5 l 2,25,26
 580.5 28.5 580.5 28.5 604.5 -19.5 c 0,27,28
 644.5 -87.5 644.5 -87.5 708.5 -111.5 c 2,29,-1
 744.5 -123.5 l 1,30,-1
 784.5 -135.5 l 1,31,-1
 856.5 -175.5 l 1,32,-1
 880.5 -191.5 l 1,33,-1
 880.5 -195.5 l 1,0,1
636.5 -183.5 m 1,34,35
 512.5 -79.5 512.5 -79.5 476.5 28.5 c 0,36,37
 444.5 112.5 444.5 112.5 448.5 208.5 c 0,38,39
 464.5 444.5 464.5 444.5 632.5 552.5 c 1,40,-1
 712.5 588.5 l 1,41,-1
 712.5 596.5 l 1,42,43
 592.5 632.5 592.5 632.5 572.5 776.5 c 0,44,45
 568.5 788.5 568.5 788.5 568.5 796.5 c 2,46,-1
 568.5 812.5 l 1,47,-1
 440.5 744.5 l 1,48,49
 276.5 636.5 276.5 636.5 204.5 456.5 c 0,50,51
 172.5 372.5 172.5 372.5 164.5 288.5 c 0,52,53
 148.5 96.5 148.5 96.5 256.5 -35.5 c 0,54,55
 280.5 -67.5 280.5 -67.5 328.5 -103.5 c 0,56,57
 372.5 -143.5 372.5 -143.5 440.5 -163.5 c 0,58,59
 512.5 -191.5 512.5 -191.5 636.5 -183.5 c 1,34,35
EndSplineSet
EndChar

StartChar: six
Encoding: 54 54 25
GlifName: six
Width: 307
VWidth: 575
Flags: W
LayerCount: 2
Fore
SplineSet
349 718.5 m 5,0,1
 289 718.5 289 718.5 249 742.5 c 4,2,3
 225 762.5 225 762.5 213 782.5 c 6,4,-1
 197 822.5 l 6,5,6
 177 914.5 177 914.5 261 962.5 c 4,7,8
 309 994.5 309 994.5 369 974.5 c 4,9,10
 437 950.5 437 950.5 457 878.5 c 6,11,-1
 461 846.5 l 5,12,-1
 465 814.5 l 5,13,-1
 489 530.5 l 5,14,-1
 489 514.5 l 5,15,-1
 489 510.5 l 5,16,-1
 493 466.5 l 5,17,-1
 493 462.5 l 5,18,-1
 497 458.5 l 5,19,20
 505 394.5 505 394.5 545 382.5 c 5,21,-1
 581 386.5 l 5,22,-1
 593 390.5 l 5,23,-1
 673 446.5 l 5,24,-1
 757 526.5 l 5,25,-1
 781 550.5 l 6,26,27
 845 626.5 845 626.5 857 682.5 c 5,28,29
 937 642.5 937 642.5 1001 538.5 c 4,30,31
 1077 418.5 1077 418.5 1077 266.5 c 4,32,33
 1077 2.5 1077 2.5 885 -137.5 c 4,34,35
 849 -165.5 849 -165.5 809 -181.5 c 6,36,-1
 729 -205.5 l 5,37,-1
 689 -213.5 l 5,38,-1
 581 -209.5 l 5,39,40
 405 -181.5 405 -181.5 277 6.5 c 4,41,42
 197 126.5 197 126.5 113 382.5 c 5,43,-1
 109 386.5 l 5,44,-1
 101 406.5 l 6,45,46
 77 482.5 77 482.5 61 526.5 c 6,47,-1
 -27 766.5 l 5,48,-1
 1 754.5 l 6,49,50
 25 746.5 25 746.5 37 734.5 c 6,51,-1
 61 690.5 l 6,52,53
 61 694.5 61 694.5 69 674.5 c 6,54,-1
 77 654.5 l 5,55,-1
 141 482.5 l 5,56,-1
 193 358.5 l 6,57,58
 317 70.5 317 70.5 493 -13.5 c 4,59,60
 565 -49.5 565 -49.5 653 -49.5 c 4,61,62
 853 -49.5 853 -49.5 957 106.5 c 4,63,64
 985 146.5 985 146.5 997 198.5 c 4,65,66
 1009 242.5 1009 242.5 1009 282.5 c 4,67,68
 1005 350.5 1005 350.5 949 434.5 c 5,69,-1
 945 438.5 l 5,70,-1
 929 462.5 l 5,71,-1
 925 462.5 l 5,72,73
 889 418.5 889 418.5 793 346.5 c 6,74,-1
 677 266.5 l 6,75,76
 629 234.5 629 234.5 593 230.5 c 4,77,78
 509 222.5 509 222.5 441 334.5 c 4,79,80
 393 422.5 393 422.5 369 586.5 c 6,81,-1
 357 650.5 l 5,82,-1
 349 718.5 l 5,0,1
EndSplineSet
EndChar

StartChar: seven
Encoding: 55 55 26
GlifName: seven
Width: 307
VWidth: 575
Flags: W
LayerCount: 2
Fore
SplineSet
689.5 408.5 m 5,0,-1
 589.5 404.5 l 5,1,-1
 577.5 404.5 l 5,2,-1
 569.5 404.5 l 6,3,4
 545.5 404.5 545.5 404.5 525.5 404.5 c 6,5,-1
 361.5 412.5 l 6,6,7
 289.5 420.5 289.5 420.5 225.5 452.5 c 4,8,9
 173.5 480.5 173.5 480.5 145.5 516.5 c 4,10,11
 89.5 580.5 89.5 580.5 105.5 680.5 c 4,12,13
 117.5 780.5 117.5 780.5 185.5 864.5 c 4,14,15
 281.5 988.5 281.5 988.5 441.5 988.5 c 4,16,17
 549.5 988.5 549.5 988.5 637.5 916.5 c 4,18,19
 701.5 868.5 701.5 868.5 745.5 768.5 c 4,20,21
 793.5 656.5 793.5 656.5 813.5 508.5 c 6,22,-1
 817.5 372.5 l 5,23,-1
 817.5 304.5 l 5,24,-1
 817.5 236.5 l 5,25,-1
 821.5 128.5 l 5,26,-1
 821.5 16.5 l 5,27,28
 877.5 16.5 877.5 16.5 917.5 -19.5 c 4,29,30
 953.5 -55.5 953.5 -55.5 917.5 -211.5 c 5,31,-1
 957.5 -119.5 l 5,32,33
 953.5 -175.5 953.5 -175.5 917.5 -211.5 c 6,34,-1
 869.5 -239.5 l 5,35,-1
 845.5 -247.5 l 6,36,37
 773.5 -259.5 773.5 -259.5 725.5 -199.5 c 4,38,39
 701.5 -171.5 701.5 -171.5 697.5 -139.5 c 6,40,-1
 693.5 -103.5 l 5,41,-1
 693.5 -83.5 l 5,42,-1
 693.5 -63.5 l 5,43,-1
 693.5 60.5 l 5,44,-1
 693.5 104.5 l 5,45,-1
 689.5 148.5 l 5,46,-1
 689.5 408.5 l 5,0,-1
217.5 584.5 m 6,47,48
 225.5 532.5 225.5 532.5 277.5 520.5 c 6,49,-1
 325.5 516.5 l 5,50,-1
 337.5 520.5 l 5,51,-1
 341.5 520.5 l 5,52,-1
 369.5 520.5 l 5,53,-1
 561.5 520.5 l 5,54,-1
 641.5 520.5 l 5,55,-1
 653.5 520.5 l 5,56,-1
 689.5 524.5 l 6,57,58
 713.5 532.5 713.5 532.5 713.5 568.5 c 6,59,-1
 709.5 588.5 l 5,60,-1
 697.5 644.5 l 6,61,62
 669.5 744.5 669.5 744.5 605.5 816.5 c 4,63,64
 549.5 872.5 549.5 872.5 505.5 880.5 c 260,65,66
 461.5 888.5 461.5 888.5 401.5 860.5 c 4,67,68
 293.5 808.5 293.5 808.5 241.5 696.5 c 6,69,-1
 217.5 628.5 l 5,70,-1
 217.5 584.5 l 6,47,48
EndSplineSet
EndChar

StartChar: eight
Encoding: 56 56 27
GlifName: eight
Width: 307
VWidth: 575
Flags: W
LayerCount: 2
Fore
SplineSet
659 405 m 1,0,-1
 695 461 l 1,1,2
 755 521 755 521 839 521 c 2,3,-1
 879 521 l 1,4,-1
 891 517 l 1,5,-1
 895 517 l 2,6,7
 959 517 959 517 995 533 c 0,8,9
 1035 545 1035 545 1051 581 c 2,10,-1
 1059 601 l 1,11,-1
 1059 605 l 1,12,-1
 1075 641 l 2,13,14
 1095 661 1095 661 1111 625 c 2,15,-1
 1115 621 l 1,16,-1
 1123 577 l 1,17,-1
 1119 529 l 1,18,-1
 1095 449 l 1,19,20
 1043 357 1043 357 919 357 c 2,21,-1
 899 357 l 2,22,23
 867 361 867 361 851 361 c 0,24,25
 771 361 771 361 735 317 c 0,26,27
 719 301 719 301 727 261 c 2,28,-1
 731 253 l 1,29,-1
 735 233 l 2,30,31
 739 157 739 157 715 81 c 0,32,33
 651 -127 651 -127 447 -199 c 2,34,-1
 375 -219 l 2,35,36
 235 -247 235 -247 155 -171 c 0,37,38
 83 -99 83 -99 83 117 c 2,39,-1
 83 97 l 1,40,-1
 83 117 l 1,41,-1
 83 497 l 2,42,43
 83 517 83 517 83 561 c 2,44,-1
 83 689 l 2,45,46
 79 713 79 713 39 729 c 1,47,-1
 35 729 l 1,48,-1
 7 741 l 2,49,50
 -57 781 -57 781 -53 857 c 2,51,-1
 -49 877 l 2,52,53
 -29 969 -29 969 67 981 c 0,54,55
 75 981 75 981 83 981 c 0,56,57
 139 981 139 981 175 937 c 0,58,59
 211 897 211 897 211 813 c 2,60,-1
 211 809 l 1,61,-1
 211 805 l 2,62,63
 211 801 211 801 211 793 c 2,64,-1
 211 789 l 1,65,-1
 211 785 l 1,66,-1
 211 777 l 1,67,-1
 211 745 l 1,68,-1
 211 533 l 1,69,-1
 211 505 l 1,70,-1
 215 413 l 1,71,-1
 235 453 l 1,72,-1
 239 457 l 1,73,-1
 251 473 l 2,74,75
 319 557 319 557 435 541 c 0,76,77
 583 525 583 525 655 405 c 1,78,-1
 659 405 l 1,0,-1
631 249 m 0,79,80
 643 317 643 317 563 345 c 0,81,82
 487 373 487 373 403 381 c 2,83,-1
 323 381 l 1,84,-1
 315 381 l 2,85,86
 319 381 319 381 303 381 c 2,87,-1
 275 377 l 2,88,89
 219 365 219 365 211 337 c 2,90,-1
 211 289 l 1,91,-1
 211 269 l 1,92,-1
 211 237 l 1,93,-1
 211 45 l 2,94,95
 211 -47 211 -47 259 -79 c 0,96,97
 283 -95 283 -95 315 -87 c 0,98,99
 355 -83 355 -83 399 -51 c 2,100,-1
 407 -47 l 2,101,102
 503 17 503 17 575 125 c 0,103,104
 619 193 619 193 631 249 c 0,79,80
EndSplineSet
EndChar

StartChar: nine
Encoding: 57 57 28
GlifName: nine
Width: 307
VWidth: 575
Flags: W
LayerCount: 2
Fore
SplineSet
763.5 -28.5 m 5,0,1
 827.5 -0.5 827.5 -0.5 859.5 31.5 c 6,2,-1
 899.5 87.5 l 6,3,4
 927.5 139.5 927.5 139.5 927.5 199.5 c 4,5,6
 927.5 359.5 927.5 359.5 783.5 475.5 c 4,7,8
 687.5 555.5 687.5 555.5 451.5 611.5 c 5,9,-1
 447.5 615.5 l 5,10,11
 327.5 643.5 327.5 643.5 267.5 663.5 c 4,12,13
 123.5 715.5 123.5 715.5 91.5 815.5 c 5,14,-1
 79.5 895.5 l 5,15,-1
 95.5 943.5 l 6,16,17
 131.5 1015.5 131.5 1015.5 211.5 1015.5 c 4,18,19
 311.5 1015.5 311.5 1015.5 339.5 911.5 c 4,20,21
 351.5 863.5 351.5 863.5 323.5 811.5 c 5,22,-1
 387.5 787.5 l 5,23,-1
 451.5 767.5 l 5,24,-1
 659.5 687.5 l 5,25,26
 839.5 599.5 839.5 599.5 931.5 451.5 c 4,27,28
 999.5 343.5 999.5 343.5 1003.5 215.5 c 4,29,30
 1011.5 19.5 1011.5 19.5 879.5 -104.5 c 4,31,32
 831.5 -144.5 831.5 -144.5 779.5 -168.5 c 4,33,34
 711.5 -200.5 711.5 -200.5 627.5 -208.5 c 5,35,-1
 627.5 -124.5 l 6,36,37
 619.5 19.5 619.5 19.5 587.5 123.5 c 4,38,39
 551.5 219.5 551.5 219.5 487.5 271.5 c 4,40,41
 443.5 299.5 443.5 299.5 395.5 303.5 c 4,42,43
 267.5 311.5 267.5 311.5 199.5 199.5 c 5,44,-1
 183.5 159.5 l 6,45,46
 163.5 107.5 163.5 107.5 179.5 47.5 c 4,47,48
 187.5 23.5 187.5 23.5 199.5 -8.5 c 6,49,-1
 207.5 -28.5 l 5,50,51
 247.5 23.5 247.5 23.5 291.5 43.5 c 6,52,-1
 327.5 51.5 l 6,53,54
 443.5 71.5 443.5 71.5 499.5 -32.5 c 4,55,56
 507.5 -52.5 507.5 -52.5 515.5 -72.5 c 4,57,58
 515.5 -76.5 515.5 -76.5 515.5 -80.5 c 4,59,60
 539.5 -196.5 539.5 -196.5 431.5 -256.5 c 4,61,62
 411.5 -268.5 411.5 -268.5 391.5 -272.5 c 6,63,-1
 323.5 -276.5 l 5,64,-1
 255.5 -260.5 l 6,65,66
 99.5 -212.5 99.5 -212.5 55.5 -36.5 c 5,67,-1
 47.5 39.5 l 6,68,69
 43.5 63.5 43.5 63.5 47.5 83.5 c 4,70,71
 67.5 207.5 67.5 207.5 139.5 287.5 c 4,72,73
 235.5 387.5 235.5 387.5 387.5 387.5 c 4,74,75
 483.5 391.5 483.5 391.5 563.5 347.5 c 4,76,77
 739.5 251.5 739.5 251.5 759.5 19.5 c 4,78,79
 763.5 15.5 763.5 15.5 763.5 11.5 c 6,80,-1
 763.5 -28.5 l 5,0,1
EndSplineSet
EndChar

StartChar: semicolon
Encoding: 59 59 30
AltUni2: 00037e.ffffffff.0
GlifName: semicolon
Width: 268
VWidth: 575
Flags: W
LayerCount: 2
Fore
SplineSet
-41.5 1063.5 m 5,0,-1
 758.5 1063.5 l 5,1,-1
 950.5 1063.5 l 5,2,-1
 1026.5 1055.5 l 5,3,-1
 1050.5 1023.5 l 5,4,-1
 1082.5 951.5 l 5,5,-1
 210.5 951.5 l 5,6,-1
 210.5 375.5 l 5,7,8
 386.5 551.5 386.5 551.5 610.5 687.5 c 6,9,-1
 714.5 747.5 l 5,10,-1
 730.5 755.5 l 5,11,-1
 766.5 771.5 l 6,12,13
 778.5 775.5 778.5 775.5 798.5 755.5 c 6,14,-1
 806.5 747.5 l 5,15,-1
 838.5 715.5 l 5,16,-1
 866.5 683.5 l 5,17,-1
 894.5 643.5 l 6,18,19
 902.5 623.5 902.5 623.5 882.5 599.5 c 6,20,-1
 866.5 567.5 l 5,21,-1
 850.5 535.5 l 6,22,23
 802.5 427.5 802.5 427.5 782.5 295.5 c 4,24,25
 750.5 51.5 750.5 51.5 834.5 -164.5 c 6,26,-1
 866.5 -240.5 l 5,27,-1
 870.5 -252.5 l 5,28,-1
 902.5 -316.5 l 5,29,-1
 834.5 -280.5 l 5,30,-1
 794.5 -228.5 l 5,31,-1
 738.5 -120.5 l 6,32,33
 642.5 79.5 642.5 79.5 670.5 507.5 c 5,34,-1
 650.5 351.5 l 5,35,-1
 670.5 507.5 l 5,36,37
 446.5 343.5 446.5 343.5 326.5 223.5 c 6,38,-1
 286.5 179.5 l 5,39,-1
 246.5 135.5 l 5,40,-1
 234.5 123.5 l 5,41,-1
 210.5 107.5 l 5,42,-1
 178.5 127.5 l 5,43,-1
 166.5 143.5 l 5,44,-1
 142.5 171.5 l 6,45,46
 94.5 219.5 94.5 219.5 86.5 267.5 c 4,47,48
 78.5 415.5 78.5 415.5 86.5 723.5 c 6,49,-1
 86.5 951.5 l 5,50,-1
 14.5 955.5 l 5,51,-1
 -9.5 991.5 l 5,52,-1
 -41.5 1063.5 l 5,0,-1
EndSplineSet
EndChar

StartChar: at
Encoding: 64 64 35
GlifName: at
Width: 7
Flags: W
LayerCount: 2
Fore
SplineSet
2722 -1200 m 1,0,-1
 2769 -1200 l 1,1,2
 2672 -1350 2672 -1350 2542 -1451 c 0,3,4
 2357 -1594 2357 -1594 2105.5 -1672 c 128,-1,5
 1854 -1750 1854 -1750 1584 -1750 c 0,6,7
 1189 -1750 1189 -1750 863 -1597.5 c 128,-1,8
 537 -1445 537 -1445 396 -1200 c 1,9,-1
 450 -1200 l 1,10,11
 537 -1322 537 -1322 687.5 -1400.5 c 128,-1,12
 838 -1479 838 -1479 1069 -1518 c 128,-1,13
 1300 -1557 1300 -1557 1551 -1557 c 0,14,15
 1824 -1557 1824 -1557 2047 -1524 c 0,16,17
 2223 -1498 2223 -1498 2329.5 -1461.5 c 128,-1,18
 2436 -1425 2436 -1425 2534 -1362.5 c 128,-1,19
 2632 -1300 2632 -1300 2722 -1200 c 1,0,-1
EndSplineSet
Validated: 1
EndChar

StartChar: D
Encoding: 68 68 39
GlifName: D_
Width: 1582
Flags: W
LayerCount: 2
Fore
SplineSet
901.232421875 1617.859375 m 5,0,-1
 1047.00976562 1481.48730469 l 5,1,-1
 1192.78710938 1467.37988281 l 5,2,-1
 1216.29980469 1429.75976562 l 5,3,-1
 1258.62207031 1340.41210938 l 5,4,-1
 1047.00976562 1340.41210938 l 5,5,-1
 1047.00976562 -150.279296875 l 5,6,-1
 1028.20019531 -140.875 l 6,7,8
 995.282226562 -122.065429688 995.282226562 -122.065429688 981.174804688 -98.552734375 c 6,9,-1
 976.47265625 -79.7421875 l 5,10,-1
 971.76953125 -60.9326171875 l 5,11,-1
 967.067382812 -42.1220703125 l 5,12,-1
 938.852539062 51.927734375 l 6,13,14
 905.934570312 150.6796875 905.934570312 150.6796875 802.48046875 258.836914062 c 4,15,16
 642.594726562 423.424804688 642.594726562 423.424804688 416.875 531.583007812 c 5,17,-1
 256.990234375 588.012695312 l 5,18,-1
 224.072265625 597.41796875 l 5,19,-1
 219.370117188 597.41796875 l 5,20,-1
 214.66796875 597.41796875 l 5,21,-1
 209.96484375 602.120117188 l 5,22,-1
 162.940429688 616.227539062 l 5,23,-1
 134.724609375 653.846679688 l 5,24,-1
 115.915039062 677.359375 l 5,25,-1
 92.40234375 714.98046875 l 5,26,-1
 45.3779296875 794.921875 l 5,27,-1
 238.180664062 921.889648438 l 5,28,-1
 351.040039062 983.022460938 l 5,29,-1
 351.040039062 987.724609375 l 5,30,31
 200.559570312 992.427734375 200.559570312 992.427734375 167.642578125 1157.01464844 c 5,32,-1
 167.642578125 1161.71777344 l 5,33,-1
 162.940429688 1222.84960938 l 5,34,-1
 162.940429688 1232.25488281 l 5,35,-1
 162.940429688 1246.36230469 l 5,36,37
 186.453125 1429.75976562 186.453125 1429.75976562 341.634765625 1495.59570312 c 5,38,-1
 402.767578125 1509.70214844 l 5,39,-1
 440.387695312 1509.70214844 l 6,40,41
 515.627929688 1500.296875 515.627929688 1500.296875 553.247070312 1472.08300781 c 4,42,43
 628.487304688 1420.35546875 628.487304688 1420.35546875 619.08203125 1335.70996094 c 4,44,45
 619.08203125 1293.38769531 619.08203125 1293.38769531 590.868164062 1255.76757812 c 4,46,47
 553.247070312 1208.7421875 553.247070312 1208.7421875 482.709960938 1208.7421875 c 4,48,49
 426.280273438 1208.7421875 426.280273438 1208.7421875 383.95703125 1251.06542969 c 4,50,51
 351.040039062 1283.98242188 351.040039062 1283.98242188 351.040039062 1354.52050781 c 5,52,-1
 299.3125 1307.49511719 l 5,53,54
 228.775390625 1204.04003906 228.775390625 1204.04003906 351.040039062 1124.09667969 c 6,55,-1
 398.065429688 1095.8828125 l 6,56,57
 463.900390625 1067.66796875 463.900390625 1067.66796875 506.22265625 1072.37011719 c 6,58,-1
 562.65234375 1091.1796875 l 5,59,-1
 604.974609375 1109.99023438 l 5,60,-1
 689.619140625 1142.90820312 l 5,61,-1
 769.5625 1175.82519531 l 5,62,-1
 811.884765625 1194.63476562 l 5,63,-1
 858.91015625 1208.7421875 l 5,64,-1
 896.530273438 1232.25488281 l 5,65,-1
 905.934570312 1293.38769531 l 5,66,-1
 901.232421875 1316.89941406 l 5,67,-1
 901.232421875 1349.81738281 l 5,68,-1
 901.232421875 1617.859375 l 5,0,-1
304.015625 743.1953125 m 5,69,70
 379.255859375 729.086914062 379.255859375 729.086914062 487.412109375 653.846679688 c 4,71,72
 590.868164062 592.71484375 590.868164062 592.71484375 694.322265625 493.961914062 c 260,73,74
 797.77734375 395.209960938 797.77734375 395.209960938 901.232421875 258.836914062 c 5,75,-1
 901.232421875 1039.45214844 l 5,76,77
 670.809570312 959.509765625 670.809570312 959.509765625 473.305664062 846.649414062 c 6,78,-1
 416.875 818.434570312 l 5,79,-1
 351.040039062 780.815429688 l 5,80,-1
 304.015625 743.1953125 l 5,69,70
1195.40039062 -348.259765625 m 5,81,-1
 283.400390625 -348.259765625 l 5,82,-1
 283.400390625 -264.66015625 l 5,83,-1
 1195.40039062 -264.66015625 l 5,84,-1
 1195.40039062 -348.259765625 l 5,81,-1
EndSplineSet
EndChar

StartChar: E
Encoding: 69 69 40
GlifName: E_
Width: 0
Flags: W
LayerCount: 2
Fore
SplineSet
1303 3639 m 1,0,-1
 1303 2498 l 1,1,-1
 1138 2498 l 1,2,-1
 1138 3309 l 1,3,-1
 1 3309 l 1,4,-1
 1 3640 l 1,5,-1
 1229 3640 l 1,6,-1
 1229 3639 l 1,7,-1
 1303 3639 l 1,0,-1
EndSplineSet
Validated: 1
EndChar

StartChar: G
Encoding: 71 71 42
GlifName: G_
Width: 1582
Flags: W
LayerCount: 2
Fore
SplineSet
881.5703125 1618.25585938 m 1,0,-1
 1034.79882812 1474.91308594 l 1,1,-1
 1188.02734375 1460.08496094 l 1,2,-1
 1212.7421875 1420.54199219 l 1,3,-1
 1257.2265625 1326.62695312 l 1,4,-1
 1034.79882812 1326.62695312 l 1,5,-1
 1034.79882812 -240.255859375 l 1,6,-1
 985.37109375 -205.65625 l 1,7,-1
 935.942382812 -171.055664062 l 1,8,-1
 921.114257812 -156.227539062 l 1,9,-1
 916.170898438 -156.227539062 l 1,10,-1
 911.227539062 -151.284179688 l 1,11,-1
 886.512695312 -126.5703125 l 1,12,-1
 881.5703125 -87.0263671875 l 1,13,-1
 881.5703125 -62.3134765625 l 1,14,-1
 881.5703125 -42.5419921875 l 1,15,-1
 881.5703125 125.515625 l 1,16,-1
 881.5703125 733.485351562 l 1,17,-1
 881.5703125 901.54296875 l 1,18,-1
 881.5703125 926.256835938 l 1,19,-1
 881.5703125 931.200195312 l 1,20,-1
 881.5703125 936.142578125 l 1,21,-1
 876.62890625 990.514648438 l 2,22,23
 871.686523438 1025.11425781 871.686523438 1025.11425781 817.313476562 1069.59960938 c 2,24,-1
 792.598632812 1094.31347656 l 1,25,-1
 718.45703125 1163.51367188 l 1,26,-1
 669.02734375 1208 l 1,27,28
 451.543945312 1376.05664062 451.543945312 1376.05664062 313.143554688 1341.45507812 c 2,29,-1
 268.65625 1326.62695312 l 1,30,-1
 209.34375 1292.02734375 l 1,31,-1
 184.629882812 1267.3125 l 1,32,-1
 150.029296875 1217.88476562 l 1,33,-1
 120.372070312 1138.79882812 l 1,34,-1
 115.4296875 1099.25683594 l 1,35,36
 219.228515625 1128.9140625 219.228515625 1128.9140625 327.971679688 1128.9140625 c 2,37,-1
 446.599609375 1109.14257812 l 1,38,-1
 525.686523438 1064.65625 l 1,39,-1
 575.114257812 1010.28515625 l 2,40,41
 629.485351562 926.256835938 629.485351562 926.256835938 614.657226562 827.400390625 c 0,42,43
 599.829101562 718.657226562 599.829101562 718.657226562 520.7421875 590.143554688 c 0,44,45
 481.200195312 516.000976562 481.200195312 516.000976562 412.000976562 441.857421875 c 2,46,-1
 397.171875 427.028320312 l 1,47,-1
 392.227539062 422.0859375 l 1,48,-1
 372.45703125 407.2578125 l 1,49,-1
 352.686523438 402.314453125 l 2,50,51
 337.857421875 392.4296875 337.857421875 392.4296875 313.143554688 417.143554688 c 2,52,-1
 303.2578125 422.0859375 l 1,53,-1
 214.286132812 481.401367188 l 1,54,-1
 214.286132812 486.34375 l 1,55,56
 377.400390625 649.456054688 377.400390625 649.456054688 441.657226562 807.629882812 c 2,57,-1
 451.543945312 832.342773438 l 1,58,-1
 466.37109375 881.772460938 l 2,59,60
 476.2578125 931.200195312 476.2578125 931.200195312 461.428710938 955.9140625 c 0,61,62
 426.830078125 1030.05664062 426.830078125 1030.05664062 318.0859375 1010.28515625 c 2,63,-1
 239.000976562 980.62890625 l 1,64,-1
 234.057617188 980.62890625 l 1,65,-1
 229.115234375 975.686523438 l 1,66,-1
 204.400390625 965.799804688 l 1,67,-1
 154.971679688 936.142578125 l 1,68,-1
 125.314453125 921.314453125 l 1,69,-1
 90.71484375 906.486328125 l 1,70,-1
 66 896.599609375 l 1,71,-1
 26.45703125 886.713867188 l 1,72,-1
 -22.970703125 891.65625 l 1,73,-1
 -42.7421875 921.314453125 l 1,74,-1
 -52.626953125 936.142578125 l 1,75,-1
 -82.2841796875 1044.88476562 l 1,76,-1
 -87.2275390625 1119.02832031 l 1,77,78
 -67.455078125 1326.62695312 -67.455078125 1326.62695312 174.743164062 1425.48535156 c 0,79,80
 234.057617188 1450.19824219 234.057617188 1450.19824219 416.942382812 1465.02636719 c 2,81,-1
 298.314453125 1460.08496094 l 1,82,-1
 416.942382812 1465.02636719 l 2,83,84
 486.143554688 1455.14257812 486.143554688 1455.14257812 570.170898438 1410.65625 c 0,85,86
 703.62890625 1346.40039062 703.62890625 1346.40039062 881.5703125 1158.5703125 c 1,87,-1
 881.5703125 1618.25585938 l 1,0,-1
1209 -400 m 1,88,-1
 249 -400 l 1,89,-1
 249 -312 l 1,90,-1
 1209 -312 l 1,91,-1
 1209 -400 l 1,88,-1
EndSplineSet
EndChar

StartChar: L
Encoding: 76 76 47
GlifName: L_
Width: 0
Flags: W
LayerCount: 2
Fore
SplineSet
-428 -824 m 1,0,-1
 -492 -902 l 1,1,-1
 -544 -960 l 1,2,3
 -566 -972 -566 -972 -578 -972 c 0,4,5
 -594 -972 -594 -972 -662 -892 c 2,6,-1
 -725 -820 l 1,7,-1
 -725 -783 l 1,8,-1
 -650 -681 l 2,9,10
 -622 -643 -622 -643 -594 -627 c 1,11,12
 -566 -627 -566 -627 -428 -783 c 1,13,-1
 -426 -804 l 1,14,-1
 -428 -824 l 1,0,-1
-873 -824 m 1,15,-1
 -937 -902 l 1,16,-1
 -989 -960 l 1,17,18
 -1011 -972 -1011 -972 -1023 -972 c 0,19,20
 -1039 -972 -1039 -972 -1107 -892 c 2,21,-1
 -1170 -820 l 1,22,-1
 -1170 -783 l 1,23,-1
 -1095 -681 l 2,24,25
 -1067 -643 -1067 -643 -1039 -627 c 1,26,27
 -1011 -627 -1011 -627 -873 -783 c 1,28,-1
 -871 -804 l 1,29,-1
 -873 -824 l 1,15,-1
EndSplineSet
EndChar

StartChar: M
Encoding: 77 77 48
GlifName: M_
Width: 1582
Flags: W
LayerCount: 2
Fore
SplineSet
-65 1063.5 m 1,0,-1
 831 1063.5 l 1,1,-1
 1035 1063.5 l 1,2,-1
 1119 1055.5 l 1,3,-1
 1143 1023.5 l 1,4,-1
 1175 951.5 l 1,5,-1
 995 951.5 l 1,6,-1
 995 -316.5 l 1,7,-1
 979 -308.5 l 2,8,9
 951 -292.5 951 -292.5 939 -272.5 c 2,10,-1
 927 -236.5 l 1,11,-1
 927 -216.5 l 1,12,-1
 923 -200.5 l 1,13,-1
 911 -160.5 l 1,14,-1
 879 -80.5 l 1,15,16
 791 79.5 791 79.5 603 195.5 c 1,17,18
 571 123.5 571 123.5 523 83.5 c 0,19,20
 483 51.5 483 51.5 435 39.5 c 2,21,-1
 351 31.5 l 1,22,23
 211 51.5 211 51.5 163 183.5 c 0,24,25
 143 231.5 143 231.5 151 279.5 c 0,26,27
 155 343.5 155 343.5 191 395.5 c 0,28,29
 207 419.5 207 419.5 255 455.5 c 0,30,31
 303 487.5 303 487.5 355 491.5 c 0,32,33
 403 495.5 403 495.5 467 479.5 c 1,34,-1
 471 479.5 l 1,35,-1
 475 475.5 l 1,36,-1
 523 463.5 l 1,37,-1
 527 487.5 l 1,38,-1
 531 519.5 l 1,39,-1
 527 579.5 l 2,40,41
 511 647.5 511 647.5 427 703.5 c 2,42,-1
 275 779.5 l 1,43,-1
 199 811.5 l 2,44,45
 139 839.5 139 839.5 91 887.5 c 2,46,-1
 79 903.5 l 1,47,-1
 79 907.5 l 1,48,-1
 75 915.5 l 1,49,-1
 55 939.5 l 1,50,-1
 23 951.5 l 1,51,-1
 23 951.5 l 1,52,-1
 -9 959.5 l 1,53,-1
 -29 983.5 l 1,54,-1
 -33 991.5 l 1,55,-1
 -49 1027.5 l 1,56,-1
 -65 1063.5 l 1,0,-1
327 947.5 m 1,57,58
 367 923.5 367 923.5 427 859.5 c 1,59,-1
 431 851.5 l 1,60,-1
 447 835.5 l 2,61,62
 579 687.5 579 687.5 635 531.5 c 2,63,-1
 659 439.5 l 1,64,-1
 659 427.5 l 1,65,-1
 667 379.5 l 1,66,-1
 687 355.5 l 1,67,-1
 691 351.5 l 1,68,-1
 699 343.5 l 1,69,-1
 747 291.5 l 2,70,71
 795 243.5 795 243.5 843 163.5 c 2,72,-1
 871 119.5 l 1,73,-1
 871 951.5 l 1,74,-1
 327 951.5 l 1,75,-1
 327 947.5 l 1,57,58
1394 1325 m 1,76,-1
 1394 1169 l 1025,77,-1
887 1220 m 5,78,-1
 791 1220 l 5,79,-1
 791 1908 l 5,80,-1
 887 1908 l 5,81,-1
 887 1220 l 5,78,-1
EndSplineSet
EndChar

StartChar: N
Encoding: 78 78 49
GlifName: N_
Width: 1582
Flags: W
LayerCount: 2
Fore
SplineSet
-127 1232.5 m 1,0,-1
 858.599609375 1232.5 l 1,1,-1
 1083 1232.5 l 1,2,-1
 1175.40039062 1223.70019531 l 1,3,-1
 1201.79980469 1188.5 l 1,4,-1
 1237 1109.29980469 l 1,5,-1
 1039 1109.29980469 l 1,6,-1
 1039 -285.5 l 1,7,-1
 1017 -272.299804688 l 2,8,9
 986.200195312 -254.700195312 986.200195312 -254.700195312 977.400390625 -237.099609375 c 2,10,-1
 968.599609375 -193.099609375 l 1,11,-1
 968.599609375 -179.900390625 l 1,12,-1
 964.200195312 -149.099609375 l 1,13,-1
 929 4.900390625 l 2,14,15
 858.599609375 238.099609375 858.599609375 238.099609375 695.799804688 405.299804688 c 0,16,17
 572.599609375 519.700195312 572.599609375 519.700195312 440.599609375 528.5 c 1,18,19
 489 471.299804688 489 471.299804688 502.200195312 414.099609375 c 0,20,21
 506.599609375 374.5 506.599609375 374.5 502.200195312 334.900390625 c 0,22,23
 484.599609375 189.700195312 484.599609375 189.700195312 339.400390625 154.5 c 1,24,-1
 260.200195312 145.700195312 l 2,25,26
 189.799804688 150.099609375 189.799804688 150.099609375 137 189.700195312 c 0,27,28
 101.799804688 220.5 101.799804688 220.5 79.7998046875 255.700195312 c 0,29,30
 44.599609375 317.299804688 44.599609375 317.299804688 49 400.900390625 c 0,31,32
 57.7998046875 546.099609375 57.7998046875 546.099609375 167.799804688 634.099609375 c 0,33,34
 264.599609375 717.700195312 264.599609375 717.700195312 387.799804688 708.900390625 c 0,35,36
 603.400390625 700.099609375 603.400390625 700.099609375 814.599609375 409.700195312 c 1,37,-1
 801.400390625 431.700195312 l 2,38,39
 805.799804688 418.5 805.799804688 418.5 814.599609375 409.700195312 c 2,40,-1
 832.200195312 378.900390625 l 2,41,42
 885 304.099609375 885 304.099609375 898.200195312 260.099609375 c 1,43,-1
 902.599609375 260.099609375 l 1,44,-1
 902.599609375 1109.29980469 l 1,45,-1
 211.799804688 1109.29980469 l 1,46,-1
 22.599609375 1109.29980469 l 1,47,-1
 -65.400390625 1113.70019531 l 1,48,-1
 -91.7998046875 1153.29980469 l 1,49,-1
 -127 1232.5 l 1,0,-1
1299 -400 m 5,50,-1
 339 -400 l 5,51,-1
 339 -312 l 5,52,-1
 1299 -312 l 5,53,-1
 1299 -400 l 5,50,-1
EndSplineSet
EndChar

StartChar: Q
Encoding: 81 81 52
GlifName: Q_
Width: 0
Flags: W
LayerCount: 2
Fore
SplineSet
271 3639 m 1,0,-1
 271 3640 l 1,1,-1
 1499 3640 l 1,2,-1
 1499 3309 l 1,3,-1
 362 3309 l 1,4,-1
 362 2498 l 1,5,-1
 197 2498 l 1,6,-1
 197 3639 l 1,7,-1
 271 3639 l 1,0,-1
EndSplineSet
Validated: 1
EndChar

StartChar: R
Encoding: 82 82 53
GlifName: R_
Width: 1582
VWidth: 575
Flags: W
LayerCount: 2
Fore
SplineSet
1299 -400 m 5,0,-1
 339 -400 l 5,1,-1
 339 -312 l 5,2,-1
 1299 -312 l 5,3,-1
 1299 -400 l 5,0,-1
160.658203125 1371.34863281 m 1,4,-1
 1085.69921875 1371.34863281 l 1,5,-1
 1307.70996094 1371.34863281 l 1,6,-1
 1395.58789062 1362.09765625 l 1,7,-1
 1423.33984375 1325.09570312 l 1,8,-1
 1460.34179688 1241.84277344 l 1,9,-1
 1252.20703125 1241.84277344 l 1,10,-1
 1252.20703125 -224.348632812 l 1,11,-1
 1233.70605469 -215.09765625 l 2,12,13
 1201.32910156 -196.596679688 1201.32910156 -196.596679688 1187.45410156 -173.469726562 c 2,14,-1
 1182.82910156 -154.969726562 l 1,15,-1
 1178.20410156 -136.469726562 l 1,16,-1
 1173.57910156 -117.967773438 l 1,17,-1
 1145.828125 -25.4638671875 l 2,18,19
 1113.45117188 71.6640625 1113.45117188 71.6640625 1011.69628906 178.043945312 c 0,20,21
 854.439453125 339.92578125 854.439453125 339.92578125 632.428710938 446.306640625 c 1,22,-1
 475.171875 501.80859375 l 1,23,-1
 442.795898438 511.05859375 l 1,24,-1
 438.170898438 511.05859375 l 1,25,-1
 433.545898438 511.05859375 l 1,26,-1
 428.919921875 515.684570312 l 1,27,-1
 382.66796875 529.560546875 l 1,28,-1
 354.916015625 566.561523438 l 1,29,-1
 336.416015625 589.688476562 l 1,30,-1
 313.290039062 626.689453125 l 1,31,-1
 267.038085938 705.318359375 l 1,32,33
 567.676757812 899.577148438 567.676757812 899.577148438 766.560546875 996.706054688 c 2,34,-1
 983.946289062 1084.5859375 l 1,35,-1
 1020.94726562 1098.46191406 l 1,36,-1
 1039.44726562 1103.08691406 l 1,37,-1
 1094.94921875 1126.21289062 l 2,38,39
 1113.45117188 1140.08789062 1113.45117188 1140.08789062 1113.45117188 1190.96484375 c 2,40,-1
 1113.45117188 1195.58984375 l 1,41,-1
 1113.45117188 1200.21582031 l 1,42,-1
 1113.45117188 1204.83984375 l 1,43,-1
 1108.82519531 1214.09179688 l 1,44,-1
 1108.82519531 1241.84277344 l 1,45,-1
 479.797851562 1241.84277344 l 1,46,-1
 304.040039062 1241.84277344 l 1,47,-1
 225.412109375 1246.46777344 l 1,48,-1
 197.66015625 1288.09472656 l 1,49,-1
 160.658203125 1371.34863281 l 1,4,-1
521.424804688 654.44140625 m 1,50,51
 595.427734375 640.565429688 595.427734375 640.565429688 701.807617188 566.561523438 c 0,52,53
 803.561523438 506.434570312 803.561523438 506.434570312 905.31640625 409.3046875 c 256,54,55
 1007.07226562 312.17578125 1007.07226562 312.17578125 1108.82519531 178.043945312 c 1,56,-1
 1108.82519531 945.829101562 l 1,57,58
 882.19140625 867.201171875 882.19140625 867.201171875 687.932617188 756.1953125 c 2,59,-1
 632.428710938 728.444335938 l 1,60,-1
 567.676757812 691.443359375 l 1,61,-1
 521.424804688 654.44140625 l 1,50,51
530.674804688 224.296875 m 2,62,-1
 558.42578125 228.921875 l 1,63,-1
 590.802734375 224.296875 l 2,64,65
 683.306640625 205.795898438 683.306640625 205.795898438 692.556640625 94.791015625 c 0,66,67
 692.556640625 -11.587890625 692.556640625 -11.587890625 586.176757812 -34.71484375 c 2,68,-1
 558.42578125 -39.33984375 l 1,69,-1
 526.05078125 -34.71484375 l 2,70,71
 433.545898438 -16.21484375 433.545898438 -16.21484375 424.294921875 94.791015625 c 0,72,73
 424.294921875 201.170898438 424.294921875 201.170898438 530.674804688 224.296875 c 2,62,-1
EndSplineSet
EndChar

StartChar: U
Encoding: 85 85 56
GlifName: U_
Width: 0
Flags: W
LayerCount: 2
Fore
SplineSet
-406 2303 m 1,0,-1
 -470 2225 l 1,1,-1
 -522 2167 l 1,2,3
 -544 2155 -544 2155 -556 2155 c 0,4,5
 -572 2155 -572 2155 -640 2235 c 2,6,-1
 -703 2307 l 1,7,-1
 -703 2344 l 1,8,-1
 -628 2446 l 2,9,10
 -600 2484 -600 2484 -572 2500 c 1,11,12
 -544 2500 -544 2500 -406 2344 c 1,13,-1
 -404 2323 l 1,14,-1
 -406 2303 l 1,0,-1
-889 2303 m 1,15,-1
 -953 2225 l 1,16,-1
 -1005 2167 l 1,17,18
 -1027 2155 -1027 2155 -1039 2155 c 0,19,20
 -1055 2155 -1055 2155 -1123 2235 c 2,21,-1
 -1186 2307 l 1,22,-1
 -1186 2344 l 1,23,-1
 -1111 2446 l 2,24,25
 -1083 2484 -1083 2484 -1055 2500 c 1,26,27
 -1027 2500 -1027 2500 -889 2344 c 1,28,-1
 -887 2323 l 1,29,-1
 -889 2303 l 1,15,-1
EndSplineSet
EndChar

StartChar: W
Encoding: 87 87 58
GlifName: W_
Width: 0
Flags: W
LayerCount: 2
Fore
SplineSet
-46 3643 m 1,0,-1
 1547 3643 l 1,1,-1
 1565 3625 l 1,2,-1
 1565 3328 l 1,3,-1
 1547 3310 l 1,4,-1
 917 3310 l 1,5,-1
 917 3166 l 1,6,-1
 899 3148 l 1,7,-1
 602 3148 l 1,8,-1
 584 3166 l 1,9,-1
 584 3310 l 1,10,-1
 -46 3310 l 1,11,-1
 -64 3328 l 1,12,-1
 -64 3625 l 1,13,-1
 -46 3643 l 1,0,-1
602 2995 m 1,14,-1
 899 2995 l 1,15,-1
 917 2977 l 1,16,-1
 917 2842 l 1,17,-1
 899 2824 l 1,18,-1
 602 2824 l 1,19,-1
 584 2842 l 1,20,-1
 584 2977 l 1,21,-1
 602 2995 l 1,14,-1
602 2671 m 1,22,-1
 899 2671 l 1,23,-1
 917 2653 l 1,24,-1
 917 2518 l 1,25,-1
 899 2500 l 1,26,-1
 602 2500 l 1,27,-1
 584 2518 l 1,28,-1
 584 2653 l 1,29,-1
 602 2671 l 1,22,-1
EndSplineSet
Validated: 1
EndChar

StartChar: bracketleft
Encoding: 91 91 62
GlifName: bracketleft
Width: 268
VWidth: 575
Flags: W
LayerCount: 2
Fore
SplineSet
629.5 1063.5 m 5,0,-1
 1013.5 1063.5 l 5,1,-1
 1113.5 1063.5 l 5,2,-1
 1161.5 1055.5 l 5,3,-1
 1185.5 1023.5 l 5,4,-1
 1217.5 951.5 l 5,5,-1
 933.5 951.5 l 5,6,-1
 933.5 -316.5 l 5,7,-1
 853.5 -260.5 l 5,8,-1
 813.5 -228.5 l 5,9,-1
 805.5 -136.5 l 5,10,-1
 805.5 83.5 l 5,11,-1
 805.5 951.5 l 5,12,-1
 725.5 951.5 l 5,13,-1
 685.5 959.5 l 5,14,-1
 661.5 991.5 l 5,15,-1
 629.5 1063.5 l 5,0,-1
-141.5 1063.5 m 5,16,-1
 658.5 1063.5 l 5,17,-1
 850.5 1063.5 l 5,18,-1
 926.5 1055.5 l 5,19,-1
 950.5 1023.5 l 5,20,-1
 982.5 951.5 l 5,21,-1
 110.5 951.5 l 5,22,-1
 110.5 375.5 l 5,23,24
 286.5 551.5 286.5 551.5 510.5 687.5 c 6,25,-1
 614.5 747.5 l 5,26,-1
 630.5 755.5 l 5,27,-1
 666.5 771.5 l 6,28,29
 678.5 775.5 678.5 775.5 698.5 755.5 c 6,30,-1
 706.5 747.5 l 5,31,-1
 738.5 715.5 l 5,32,-1
 766.5 683.5 l 5,33,-1
 794.5 643.5 l 6,34,35
 802.5 623.5 802.5 623.5 782.5 599.5 c 6,36,-1
 766.5 567.5 l 5,37,-1
 750.5 535.5 l 6,38,39
 702.5 427.5 702.5 427.5 682.5 295.5 c 4,40,41
 650.5 51.5 650.5 51.5 734.5 -164.5 c 6,42,-1
 766.5 -240.5 l 5,43,-1
 770.5 -252.5 l 5,44,-1
 802.5 -316.5 l 5,45,-1
 734.5 -280.5 l 5,46,-1
 694.5 -228.5 l 5,47,-1
 638.5 -120.5 l 6,48,49
 542.5 79.5 542.5 79.5 570.5 507.5 c 5,50,-1
 550.5 351.5 l 5,51,-1
 570.5 507.5 l 5,52,53
 346.5 343.5 346.5 343.5 226.5 223.5 c 6,54,-1
 186.5 179.5 l 5,55,-1
 146.5 135.5 l 5,56,-1
 134.5 123.5 l 5,57,-1
 110.5 107.5 l 5,58,-1
 78.5 127.5 l 5,59,-1
 66.5 143.5 l 5,60,-1
 42.5 171.5 l 6,61,62
 -5.5 219.5 -5.5 219.5 -13.5 267.5 c 4,63,64
 -21.5 415.5 -21.5 415.5 -13.5 723.5 c 6,65,-1
 -13.5 951.5 l 5,66,-1
 -85.5 955.5 l 5,67,-1
 -109.5 991.5 l 5,68,-1
 -141.5 1063.5 l 5,16,-1
EndSplineSet
EndChar

StartChar: backslash
Encoding: 92 92 63
GlifName: backslash
Width: 3136
Flags: W
LayerCount: 2
Fore
SplineSet
1333.84765625 1019.14550781 m 5,0,-1
 2114.99414062 1019.14550781 l 5,1,-1
 2302.46875 1019.14550781 l 5,2,-1
 2376.67773438 1011.33398438 l 5,3,-1
 2400.11230469 980.087890625 l 5,4,-1
 2431.359375 909.786132812 l 5,5,-1
 2255.60058594 909.786132812 l 5,6,-1
 2255.60058594 -328.331054688 l 5,7,-1
 2239.9765625 -320.51953125 l 6,8,9
 2212.63769531 -304.896484375 2212.63769531 -304.896484375 2200.91992188 -285.3671875 c 6,10,-1
 2197.01464844 -269.745117188 l 5,11,-1
 2193.109375 -254.122070312 l 5,12,-1
 2189.203125 -238.499023438 l 5,13,-1
 2165.76953125 -160.383789062 l 6,14,15
 2138.42871094 -78.365234375 2138.42871094 -78.365234375 2052.50292969 11.466796875 c 4,16,17
 1919.70703125 148.16796875 1919.70703125 148.16796875 1732.23144531 238 c 5,18,-1
 1599.4375 284.868164062 l 5,19,-1
 1572.09765625 292.6796875 l 5,20,-1
 1568.19238281 292.6796875 l 5,21,-1
 1564.28710938 292.6796875 l 5,22,-1
 1560.38085938 296.5859375 l 5,23,-1
 1521.32324219 308.303710938 l 5,24,-1
 1497.88867188 339.548828125 l 5,25,-1
 1482.265625 359.078125 l 5,26,-1
 1462.73730469 390.323242188 l 5,27,-1
 1423.6796875 456.720703125 l 5,28,29
 1677.55273438 620.760742188 1677.55273438 620.760742188 1845.5 702.78125 c 6,30,-1
 2029.06835938 776.991210938 l 5,31,-1
 2060.31445312 788.708984375 l 5,32,-1
 2075.93652344 792.614257812 l 5,33,-1
 2122.8046875 812.142578125 l 6,34,35
 2138.42871094 823.859375 2138.42871094 823.859375 2138.42871094 866.822265625 c 6,36,-1
 2138.42871094 870.727539062 l 5,37,-1
 2138.42871094 874.633789062 l 5,38,-1
 2138.42871094 878.538085938 l 5,39,-1
 2134.52246094 886.3515625 l 5,40,-1
 2134.52246094 909.786132812 l 5,41,-1
 1603.34375 909.786132812 l 5,42,-1
 1454.92578125 909.786132812 l 5,43,-1
 1388.52929688 913.69140625 l 5,44,-1
 1365.09472656 948.842773438 l 5,45,-1
 1333.84765625 1019.14550781 l 5,0,-1
1638.49609375 413.7578125 m 5,46,47
 1700.98730469 402.041015625 1700.98730469 402.041015625 1790.81933594 339.548828125 c 4,48,49
 1876.74511719 288.774414062 1876.74511719 288.774414062 1962.67089844 206.75390625 c 260,50,51
 2048.59765625 124.733398438 2048.59765625 124.733398438 2134.52246094 11.466796875 c 5,52,-1
 2134.52246094 659.818359375 l 5,53,54
 1943.14257812 593.422851562 1943.14257812 593.422851562 1779.10253906 499.684570312 c 6,55,-1
 1732.23144531 476.25 l 5,56,-1
 1677.55273438 445.00390625 l 5,57,-1
 1638.49609375 413.7578125 l 5,46,47
1646.30664062 50.5244140625 m 6,58,-1
 1669.74121094 54.4306640625 l 5,59,-1
 1697.08105469 50.5244140625 l 6,60,61
 1775.19628906 34.9013671875 1775.19628906 34.9013671875 1783.0078125 -58.8349609375 c 4,62,63
 1783.0078125 -148.666992188 1783.0078125 -148.666992188 1693.17480469 -168.1953125 c 6,64,-1
 1669.74121094 -172.1015625 l 5,65,-1
 1642.40234375 -168.1953125 l 6,66,67
 1564.28710938 -152.573242188 1564.28710938 -152.573242188 1556.47460938 -58.8349609375 c 4,68,69
 1556.47460938 30.99609375 1556.47460938 30.99609375 1646.30664062 50.5244140625 c 6,58,-1
407.728515625 1007.08300781 m 5,70,-1
 353.578125 1055.53222656 l 5,71,-1
 336.478515625 1072.6328125 l 6,72,73
 307.978515625 1106.83300781 307.978515625 1106.83300781 285.178710938 1149.58300781 c 5,74,-1
 273.778320312 1198.03222656 l 6,75,76
 253.828125 1309.18261719 253.828125 1309.18261719 407.728515625 1394.68261719 c 6,77,-1
 439.078125 1411.78222656 l 5,78,-1
 461.87890625 1420.33300781 l 5,79,-1
 484.678710938 1428.8828125 l 5,80,-1
 558.778320312 1451.68261719 l 6,81,82
 621.478515625 1468.78222656 621.478515625 1468.78222656 684.178710938 1471.6328125 c 4,83,84
 755.428710938 1477.33300781 755.428710938 1477.33300781 803.87890625 1468.78222656 c 4,85,86
 960.62890625 1448.83300781 960.62890625 1448.83300781 1131.62890625 1334.83300781 c 4,87,88
 1245.62890625 1255.03222656 1245.62890625 1255.03222656 1305.47851562 1178.08300781 c 6,89,-1
 1336.828125 1132.48242188 l 5,90,-1
 1339.67871094 1126.78222656 l 5,91,-1
 1342.52832031 1123.93261719 l 5,92,-1
 1342.52832031 1112.53222656 l 5,93,-1
 1331.12890625 1106.83300781 l 5,94,-1
 1325.42871094 1109.68261719 l 5,95,-1
 1299.77832031 1126.78222656 l 5,96,-1
 1291.22851562 1135.33300781 l 5,97,-1
 1268.42871094 1163.83300781 l 5,98,-1
 1262.72851562 1172.3828125 l 5,99,-1
 1248.47851562 1192.33300781 l 6,100,101
 1205.72851562 1240.78222656 1205.72851562 1240.78222656 1160.12890625 1266.43261719 c 4,102,103
 1009.078125 1380.43261719 1009.078125 1380.43261719 826.678710938 1397.53222656 c 5,104,-1
 726.928710938 1394.68261719 l 6,105,106
 630.028320312 1386.1328125 630.028320312 1386.1328125 535.978515625 1349.08300781 c 4,107,108
 427.678710938 1312.03222656 427.678710938 1312.03222656 373.528320312 1235.08300781 c 4,109,110
 342.178710938 1198.03222656 342.178710938 1198.03222656 347.87890625 1158.1328125 c 6,111,-1
 347.87890625 1155.28222656 l 6,112,113
 347.87890625 1126.78222656 347.87890625 1126.78222656 362.12890625 1103.98242188 c 260,114,115
 376.37890625 1081.18261719 376.37890625 1081.18261719 430.528320312 1029.8828125 c 4,116,117
 450.478515625 1009.93261719 450.478515625 1009.93261719 473.278320312 1004.23242188 c 4,118,119
 484.678710938 998.532226562 484.678710938 998.532226562 507.478515625 1004.23242188 c 6,120,-1
 524.578125 1004.23242188 l 5,121,-1
 618.62890625 1004.23242188 l 5,122,-1
 632.87890625 1004.23242188 l 5,123,-1
 644.278320312 1004.23242188 l 5,124,-1
 647.12890625 1004.23242188 l 5,125,-1
 667.078125 1001.3828125 l 5,126,-1
 675.62890625 998.532226562 l 5,127,-1
 687.028320312 984.282226562 l 5,128,-1
 689.87890625 981.432617188 l 5,129,-1
 692.728515625 975.732421875 l 5,130,-1
 704.12890625 950.083007812 l 5,131,-1
 715.528320312 924.432617188 l 5,132,-1
 533.12890625 924.432617188 l 5,133,-1
 533.12890625 20.982421875 l 5,134,-1
 476.12890625 60.8828125 l 5,135,-1
 447.62890625 83.6826171875 l 5,136,-1
 441.928710938 149.232421875 l 5,137,-1
 441.928710938 305.982421875 l 5,138,-1
 441.928710938 924.432617188 l 5,139,-1
 370.678710938 924.432617188 l 5,140,-1
 336.478515625 930.1328125 l 5,141,-1
 319.37890625 952.932617188 l 5,142,-1
 296.578125 1004.23242188 l 5,143,-1
 407.728515625 1004.23242188 l 5,144,-1
 407.728515625 1007.08300781 l 5,70,-1
455.703125 1038.90722656 m 5,145,-1
 1215.703125 1038.90722656 l 5,146,-1
 1398.10351562 1038.90722656 l 5,147,-1
 1470.30371094 1031.30761719 l 5,148,-1
 1493.10351562 1000.90722656 l 5,149,-1
 1523.50390625 932.5078125 l 5,150,-1
 695.103515625 932.5078125 l 5,151,-1
 695.103515625 385.307617188 l 5,152,153
 862.303710938 552.5078125 862.303710938 552.5078125 1075.10351562 681.708007812 c 6,154,-1
 1173.90332031 738.708007812 l 5,155,-1
 1189.10351562 746.307617188 l 5,156,-1
 1223.30371094 761.5078125 l 6,157,158
 1234.703125 765.307617188 1234.703125 765.307617188 1253.703125 746.307617188 c 6,159,-1
 1261.30371094 738.708007812 l 5,160,-1
 1291.703125 708.307617188 l 5,161,-1
 1318.30371094 677.907226562 l 5,162,-1
 1344.90332031 639.907226562 l 6,163,164
 1352.50390625 620.907226562 1352.50390625 620.907226562 1333.50390625 598.107421875 c 6,165,-1
 1318.30371094 567.708007812 l 5,166,-1
 1303.10351562 537.307617188 l 6,167,168
 1257.50390625 434.708007812 1257.50390625 434.708007812 1238.50390625 309.307617188 c 4,169,170
 1208.10351562 77.5078125 1208.10351562 77.5078125 1287.90332031 -127.692382812 c 6,171,-1
 1318.30371094 -199.892578125 l 5,172,-1
 1322.10351562 -211.291992188 l 5,173,-1
 1352.50390625 -272.092773438 l 5,174,-1
 1287.90332031 -237.892578125 l 5,175,-1
 1249.90332031 -188.4921875 l 5,176,-1
 1196.703125 -85.892578125 l 6,177,178
 1105.50390625 104.107421875 1105.50390625 104.107421875 1132.10351562 510.708007812 c 5,179,-1
 1113.10351562 362.5078125 l 5,180,-1
 1132.10351562 510.708007812 l 5,181,182
 919.303710938 354.907226562 919.303710938 354.907226562 805.303710938 240.907226562 c 6,183,-1
 767.303710938 199.107421875 l 5,184,-1
 729.303710938 157.307617188 l 5,185,-1
 717.903320312 145.907226562 l 5,186,-1
 695.103515625 130.708007812 l 5,187,-1
 664.703125 149.708007812 l 5,188,-1
 653.303710938 164.907226562 l 5,189,-1
 630.50390625 191.5078125 l 6,190,191
 584.903320312 237.107421875 584.903320312 237.107421875 577.303710938 282.708007812 c 4,192,193
 569.703125 423.307617188 569.703125 423.307617188 577.303710938 715.907226562 c 6,194,-1
 577.303710938 932.5078125 l 5,195,-1
 508.903320312 936.307617188 l 5,196,-1
 486.103515625 970.5078125 l 5,197,-1
 455.703125 1038.90722656 l 5,145,-1
2722 -1200 m 1,198,-1
 2769 -1200 l 1,199,200
 2672 -1350 2672 -1350 2542 -1451 c 0,201,202
 2357 -1594 2357 -1594 2105.5 -1672 c 128,-1,203
 1854 -1750 1854 -1750 1584 -1750 c 0,204,205
 1189 -1750 1189 -1750 863 -1597.5 c 128,-1,206
 537 -1445 537 -1445 396 -1200 c 1,207,-1
 450 -1200 l 1,208,209
 537 -1322 537 -1322 687.5 -1400.5 c 128,-1,210
 838 -1479 838 -1479 1069 -1518 c 128,-1,211
 1300 -1557 1300 -1557 1551 -1557 c 0,212,213
 1824 -1557 1824 -1557 2047 -1524 c 0,214,215
 2223 -1498 2223 -1498 2329.5 -1461.5 c 128,-1,216
 2436 -1425 2436 -1425 2534 -1362.5 c 128,-1,217
 2632 -1300 2632 -1300 2722 -1200 c 1,198,-1
EndSplineSet
EndChar

StartChar: bracketright
Encoding: 93 93 64
GlifName: bracketright
Width: 268
VWidth: 575
Flags: W
LayerCount: 2
Fore
SplineSet
-231.03515625 1068.37304688 m 5,0,-1
 539.833007812 1068.37304688 l 5,1,-1
 724.841796875 1068.37304688 l 5,2,-1
 798.073242188 1060.66503906 l 5,3,-1
 821.19921875 1029.83007812 l 5,4,-1
 852.03515625 960.453125 l 5,5,-1
 678.58984375 960.453125 l 5,6,-1
 678.58984375 -261.373046875 l 5,7,-1
 663.171875 -253.665039062 l 6,8,9
 636.19140625 -238.247070312 636.19140625 -238.247070312 624.62890625 -218.974609375 c 6,10,-1
 620.774414062 -203.55859375 l 5,11,-1
 616.919921875 -188.141601562 l 5,12,-1
 613.065429688 -172.723632812 l 5,13,-1
 589.940429688 -95.63671875 l 6,14,15
 562.958984375 -14.697265625 562.958984375 -14.697265625 478.1640625 73.953125 c 4,16,17
 347.116210938 208.85546875 347.116210938 208.85546875 162.107421875 297.505859375 c 5,18,-1
 31.0595703125 343.756835938 l 5,19,-1
 4.080078125 351.465820312 l 5,20,-1
 0.2255859375 351.465820312 l 5,21,-1
 -3.62890625 351.465820312 l 5,22,-1
 -7.4833984375 355.3203125 l 5,23,-1
 -46.02734375 366.883789062 l 5,24,-1
 -69.1533203125 397.71875 l 5,25,-1
 -84.5703125 416.990234375 l 5,26,-1
 -103.841796875 447.82421875 l 5,27,-1
 -142.384765625 513.348632812 l 5,28,29
 108.147460938 675.23046875 108.147460938 675.23046875 273.883789062 756.171875 c 6,30,-1
 455.038085938 829.404296875 l 5,31,-1
 485.873046875 840.96875 l 5,32,-1
 501.2890625 844.822265625 l 5,33,-1
 547.541015625 864.09375 l 6,34,35
 562.958984375 875.65625 562.958984375 875.65625 562.958984375 918.0546875 c 6,36,-1
 562.958984375 921.908203125 l 5,37,-1
 562.958984375 925.762695312 l 5,38,-1
 562.958984375 929.616210938 l 5,39,-1
 559.104492188 937.326171875 l 5,40,-1
 559.104492188 960.453125 l 5,41,-1
 34.9140625 960.453125 l 5,42,-1
 -111.549804688 960.453125 l 5,43,-1
 -177.073242188 964.306640625 l 5,44,-1
 -200.19921875 998.99609375 l 5,45,-1
 -231.03515625 1068.37304688 l 5,0,-1
69.6044921875 470.951171875 m 5,46,47
 131.2734375 459.388671875 131.2734375 459.388671875 219.922851562 397.71875 c 4,48,49
 304.71875 347.611328125 304.71875 347.611328125 389.513671875 266.669921875 c 260,50,51
 474.309570312 185.729492188 474.309570312 185.729492188 559.104492188 73.953125 c 5,52,-1
 559.104492188 713.774414062 l 5,53,54
 370.243164062 648.250976562 370.243164062 648.250976562 208.361328125 555.74609375 c 6,55,-1
 162.107421875 532.620117188 l 5,56,-1
 108.147460938 501.786132812 l 5,57,-1
 69.6044921875 470.951171875 l 5,46,47
77.3125 112.497070312 m 6,58,-1
 100.438476562 116.3515625 l 5,59,-1
 127.418945312 112.497070312 l 6,60,61
 204.505859375 97.080078125 204.505859375 97.080078125 212.213867188 4.576171875 c 4,62,63
 212.213867188 -84.0732421875 212.213867188 -84.0732421875 123.564453125 -103.345703125 c 6,64,-1
 100.438476562 -107.19921875 l 5,65,-1
 73.458984375 -103.345703125 l 6,66,67
 -3.62890625 -87.9287109375 -3.62890625 -87.9287109375 -11.337890625 4.576171875 c 4,68,69
 -11.337890625 93.2255859375 -11.337890625 93.2255859375 77.3125 112.497070312 c 6,58,-1
629.5 1063.5 m 1,70,-1
 1013.5 1063.5 l 1,71,-1
 1113.5 1063.5 l 1,72,-1
 1161.5 1055.5 l 1,73,-1
 1185.5 1023.5 l 1,74,-1
 1217.5 951.5 l 1,75,-1
 933.5 951.5 l 1,76,-1
 933.5 -316.5 l 1,77,-1
 853.5 -260.5 l 1,78,-1
 813.5 -228.5 l 1,79,-1
 805.5 -136.5 l 1,80,-1
 805.5 83.5 l 1,81,-1
 805.5 951.5 l 1,82,-1
 725.5 951.5 l 1,83,-1
 685.5 959.5 l 1,84,-1
 661.5 991.5 l 1,85,-1
 629.5 1063.5 l 1,70,-1
EndSplineSet
EndChar

StartChar: asciicircum
Encoding: 94 94 65
GlifName: asciicircum
Width: 7
Flags: W
LayerCount: 2
Fore
SplineSet
8925 -1200 m 1,0,-1
 9097 -1200 l 1,1,2
 8741 -1391 8741 -1391 8265 -1519 c 0,3,4
 7586 -1702 7586 -1702 6664 -1801 c 128,-1,5
 5742 -1900 5742 -1900 4752 -1900 c 0,6,7
 3304 -1900 3304 -1900 2108.5 -1705.5 c 128,-1,8
 913 -1511 913 -1511 396 -1200 c 1,9,-1
 594 -1200 l 1,10,11
 913 -1355 913 -1355 1465 -1455.5 c 128,-1,12
 2017 -1556 2017 -1556 2864 -1605.5 c 128,-1,13
 3711 -1655 3711 -1655 4631 -1655 c 0,14,15
 5632 -1655 5632 -1655 6450 -1613 c 0,16,17
 7095 -1580 7095 -1580 7485.5 -1533 c 128,-1,18
 7876 -1486 7876 -1486 8235.5 -1407 c 128,-1,19
 8595 -1328 8595 -1328 8925 -1200 c 1,0,-1
EndSplineSet
Validated: 1
EndChar

StartChar: underscore
Encoding: 95 95 66
GlifName: underscore
Width: 1582
Flags: W
LayerCount: 2
Fore
SplineSet
-72 440 m 1,0,-1
 -103 451 l 1,1,-1
 63 588 l 1,2,-1
 1688 588 l 1,3,-1
 1718 578 l 1,4,-1
 1534 440 l 1,5,-1
 -72 440 l 1,0,-1
EndSplineSet
Validated: 1
EndChar

StartChar: grave
Encoding: 96 96 67
GlifName: grave
Width: 0
Flags: W
LayerCount: 2
Fore
SplineSet
5823 -2000 m 1,0,-1
 5933 -2000 l 1,1,2
 5707 -2242 5707 -2242 5403 -2407 c 0,3,4
 4972 -2640 4972 -2640 4385 -2766.5 c 128,-1,5
 3798 -2893 3798 -2893 3168 -2893 c 0,6,7
 2246 -2893 2246 -2893 1485.5 -2645 c 128,-1,8
 725 -2397 725 -2397 396 -2000 c 1,9,-1
 522 -2000 l 1,10,11
 725 -2198 725 -2198 1076 -2326 c 128,-1,12
 1427 -2454 1427 -2454 1966 -2517 c 128,-1,13
 2505 -2580 2505 -2580 3091 -2580 c 0,14,15
 3728 -2580 3728 -2580 4248 -2527 c 0,16,17
 4659 -2484 4659 -2484 4907.5 -2424 c 128,-1,18
 5156 -2364 5156 -2364 5384.5 -2263 c 128,-1,19
 5613 -2162 5613 -2162 5823 -2000 c 1,0,-1
EndSplineSet
Validated: 1
EndChar

StartChar: d
Encoding: 100 100 71
GlifName: d
Width: 1582
Flags: W
LayerCount: 2
Fore
SplineSet
914.349609375 1669.59960938 m 5,0,-1
 1067.79980469 1526.04980469 l 5,1,-1
 1221.25 1511.20019531 l 5,2,-1
 1246 1471.59960938 l 5,3,-1
 1290.54980469 1377.54980469 l 5,4,-1
 1067.79980469 1377.54980469 l 5,5,-1
 1067.79980469 -191.599609375 l 5,6,-1
 1048 -181.700195312 l 6,7,8
 1013.34960938 -161.900390625 1013.34960938 -161.900390625 998.5 -137.150390625 c 6,9,-1
 993.549804688 -117.349609375 l 5,10,-1
 988.599609375 -97.5498046875 l 5,11,-1
 983.650390625 -77.75 l 5,12,-1
 953.950195312 21.25 l 6,13,14
 919.299804688 125.200195312 919.299804688 125.200195312 810.400390625 239.049804688 c 4,15,16
 642.099609375 412.299804688 642.099609375 412.299804688 404.5 526.150390625 c 5,17,-1
 236.200195312 585.549804688 l 5,18,-1
 201.549804688 595.450195312 l 5,19,-1
 196.599609375 595.450195312 l 5,20,-1
 191.650390625 595.450195312 l 5,21,-1
 186.700195312 600.400390625 l 5,22,-1
 137.200195312 615.25 l 5,23,-1
 107.5 654.849609375 l 5,24,-1
 87.7001953125 679.599609375 l 5,25,-1
 62.9501953125 719.200195312 l 5,26,-1
 13.4501953125 803.349609375 l 5,27,-1
 216.400390625 937 l 5,28,-1
 335.200195312 1001.34960938 l 5,29,-1
 335.200195312 1006.29980469 l 5,30,31
 176.799804688 1011.25 176.799804688 1011.25 142.150390625 1184.5 c 5,32,-1
 142.150390625 1189.45019531 l 5,33,-1
 137.200195312 1253.79980469 l 5,34,-1
 137.200195312 1263.70019531 l 5,35,-1
 137.200195312 1278.54980469 l 5,36,37
 161.950195312 1471.59960938 161.950195312 1471.59960938 325.299804688 1540.90039062 c 5,38,-1
 389.650390625 1555.75 l 5,39,-1
 429.25 1555.75 l 6,40,41
 508.450195312 1545.84960938 508.450195312 1545.84960938 548.049804688 1516.15039062 c 4,42,43
 627.25 1461.70019531 627.25 1461.70019531 617.349609375 1372.59960938 c 4,44,45
 617.349609375 1328.04980469 617.349609375 1328.04980469 587.650390625 1288.45019531 c 4,46,47
 548.049804688 1238.95019531 548.049804688 1238.95019531 473.799804688 1238.95019531 c 4,48,49
 414.400390625 1238.95019531 414.400390625 1238.95019531 369.849609375 1283.5 c 4,50,51
 335.200195312 1318.15039062 335.200195312 1318.15039062 335.200195312 1392.40039062 c 5,52,-1
 280.75 1342.90039062 l 5,53,54
 206.5 1234 206.5 1234 335.200195312 1149.84960938 c 6,55,-1
 384.700195312 1120.15039062 l 6,56,57
 454 1090.45019531 454 1090.45019531 498.549804688 1095.40039062 c 6,58,-1
 557.950195312 1115.20019531 l 5,59,-1
 602.5 1135 l 5,60,-1
 691.599609375 1169.65039062 l 5,61,-1
 775.75 1204.29980469 l 5,62,-1
 820.299804688 1224.09960938 l 5,63,-1
 869.799804688 1238.95019531 l 5,64,-1
 909.400390625 1263.70019531 l 5,65,-1
 919.299804688 1328.04980469 l 5,66,-1
 914.349609375 1352.79980469 l 5,67,-1
 914.349609375 1387.45019531 l 5,68,-1
 914.349609375 1669.59960938 l 5,0,-1
285.700195312 748.900390625 m 5,69,70
 364.900390625 734.049804688 364.900390625 734.049804688 478.75 654.849609375 c 4,71,72
 587.650390625 590.5 587.650390625 590.5 696.549804688 486.549804688 c 260,73,74
 805.450195312 382.599609375 805.450195312 382.599609375 914.349609375 239.049804688 c 5,75,-1
 914.349609375 1060.75 l 5,76,77
 671.799804688 976.599609375 671.799804688 976.599609375 463.900390625 857.799804688 c 6,78,-1
 404.5 828.099609375 l 5,79,-1
 335.200195312 788.5 l 5,80,-1
 285.700195312 748.900390625 l 5,69,70
EndSplineSet
EndChar

StartChar: e
Encoding: 101 101 72
GlifName: e
Width: 0
Flags: W
LayerCount: 2
Fore
SplineSet
28 3643 m 0,0,1
 651 3643 651 3643 1108 3094 c 1,2,3
 1306 2811 1306 2811 1306 2509 c 1,4,-1
 1297 2500 l 1,5,-1
 1153 2500 l 2,6,7
 1137 2500 1137 2500 1108 2761 c 1,8,9
 1003 3063 1003 3063 775 3175 c 1,10,11
 486 3310 486 3310 10 3310 c 1,12,-1
 1 3319 l 1,13,-1
 1 3625 l 2,14,15
 1 3643 1 3643 28 3643 c 0,0,1
EndSplineSet
Validated: 1
EndChar

StartChar: g
Encoding: 103 103 74
GlifName: g
Width: 268
VWidth: 575
Flags: W
LayerCount: 2
Fore
SplineSet
881.5703125 1618.25585938 m 5,0,-1
 1034.79882812 1474.91308594 l 5,1,-1
 1188.02734375 1460.08496094 l 5,2,-1
 1212.7421875 1420.54199219 l 5,3,-1
 1257.2265625 1326.62695312 l 5,4,-1
 1034.79882812 1326.62695312 l 5,5,-1
 1034.79882812 -240.255859375 l 5,6,-1
 985.37109375 -205.65625 l 5,7,-1
 935.942382812 -171.055664062 l 5,8,-1
 921.114257812 -156.227539062 l 5,9,-1
 916.170898438 -156.227539062 l 5,10,-1
 911.227539062 -151.284179688 l 5,11,-1
 886.512695312 -126.5703125 l 5,12,-1
 881.5703125 -87.0263671875 l 5,13,-1
 881.5703125 -62.3134765625 l 5,14,-1
 881.5703125 -42.5419921875 l 5,15,-1
 881.5703125 125.515625 l 5,16,-1
 881.5703125 733.485351562 l 5,17,-1
 881.5703125 901.54296875 l 5,18,-1
 881.5703125 926.256835938 l 5,19,-1
 881.5703125 931.200195312 l 5,20,-1
 881.5703125 936.142578125 l 5,21,-1
 876.62890625 990.514648438 l 6,22,23
 871.686523438 1025.11425781 871.686523438 1025.11425781 817.313476562 1069.59960938 c 6,24,-1
 792.598632812 1094.31347656 l 5,25,-1
 718.45703125 1163.51367188 l 5,26,-1
 669.02734375 1208 l 5,27,28
 451.543945312 1376.05664062 451.543945312 1376.05664062 313.143554688 1341.45507812 c 6,29,-1
 268.65625 1326.62695312 l 5,30,-1
 209.34375 1292.02734375 l 5,31,-1
 184.629882812 1267.3125 l 5,32,-1
 150.029296875 1217.88476562 l 5,33,-1
 120.372070312 1138.79882812 l 5,34,-1
 115.4296875 1099.25683594 l 5,35,36
 219.228515625 1128.9140625 219.228515625 1128.9140625 327.971679688 1128.9140625 c 6,37,-1
 446.599609375 1109.14257812 l 5,38,-1
 525.686523438 1064.65625 l 5,39,-1
 575.114257812 1010.28515625 l 6,40,41
 629.485351562 926.256835938 629.485351562 926.256835938 614.657226562 827.400390625 c 4,42,43
 599.829101562 718.657226562 599.829101562 718.657226562 520.7421875 590.143554688 c 4,44,45
 481.200195312 516.000976562 481.200195312 516.000976562 412.000976562 441.857421875 c 6,46,-1
 397.171875 427.028320312 l 5,47,-1
 392.227539062 422.0859375 l 5,48,-1
 372.45703125 407.2578125 l 5,49,-1
 352.686523438 402.314453125 l 6,50,51
 337.857421875 392.4296875 337.857421875 392.4296875 313.143554688 417.143554688 c 6,52,-1
 303.2578125 422.0859375 l 5,53,-1
 214.286132812 481.401367188 l 5,54,-1
 214.286132812 486.34375 l 5,55,56
 377.400390625 649.456054688 377.400390625 649.456054688 441.657226562 807.629882812 c 6,57,-1
 451.543945312 832.342773438 l 5,58,-1
 466.37109375 881.772460938 l 6,59,60
 476.2578125 931.200195312 476.2578125 931.200195312 461.428710938 955.9140625 c 4,61,62
 426.830078125 1030.05664062 426.830078125 1030.05664062 318.0859375 1010.28515625 c 6,63,-1
 239.000976562 980.62890625 l 5,64,-1
 234.057617188 980.62890625 l 5,65,-1
 229.115234375 975.686523438 l 5,66,-1
 204.400390625 965.799804688 l 5,67,-1
 154.971679688 936.142578125 l 5,68,-1
 125.314453125 921.314453125 l 5,69,-1
 90.71484375 906.486328125 l 5,70,-1
 66 896.599609375 l 5,71,-1
 26.45703125 886.713867188 l 5,72,-1
 -22.970703125 891.65625 l 5,73,-1
 -42.7421875 921.314453125 l 5,74,-1
 -52.626953125 936.142578125 l 5,75,-1
 -82.2841796875 1044.88476562 l 5,76,-1
 -87.2275390625 1119.02832031 l 5,77,78
 -67.455078125 1326.62695312 -67.455078125 1326.62695312 174.743164062 1425.48535156 c 4,79,80
 234.057617188 1450.19824219 234.057617188 1450.19824219 416.942382812 1465.02636719 c 6,81,-1
 298.314453125 1460.08496094 l 5,82,-1
 416.942382812 1465.02636719 l 6,83,84
 486.143554688 1455.14257812 486.143554688 1455.14257812 570.170898438 1410.65625 c 4,85,86
 703.62890625 1346.40039062 703.62890625 1346.40039062 881.5703125 1158.5703125 c 5,87,-1
 881.5703125 1618.25585938 l 5,0,-1
EndSplineSet
EndChar

StartChar: l
Encoding: 108 108 79
GlifName: l
Width: 0
Flags: W
LayerCount: 2
Fore
SplineSet
-643 -824 m 1,0,-1
 -707 -902 l 1,1,-1
 -759 -960 l 1,2,3
 -781 -972 -781 -972 -793 -972 c 0,4,5
 -809 -972 -809 -972 -877 -892 c 2,6,-1
 -940 -820 l 1,7,-1
 -940 -783 l 1,8,-1
 -865 -681 l 2,9,10
 -837 -643 -837 -643 -809 -627 c 1,11,12
 -781 -627 -781 -627 -643 -783 c 1,13,-1
 -641 -804 l 1,14,-1
 -643 -824 l 1,0,-1
EndSplineSet
Validated: 1
EndChar

StartChar: m
Encoding: 109 109 80
GlifName: m
Width: 297
VWidth: 575
Flags: W
LayerCount: 2
Fore
SplineSet
-65 1063.5 m 5,0,-1
 831 1063.5 l 5,1,-1
 1035 1063.5 l 5,2,-1
 1119 1055.5 l 5,3,-1
 1143 1023.5 l 5,4,-1
 1175 951.5 l 5,5,-1
 995 951.5 l 5,6,-1
 995 -316.5 l 5,7,-1
 979 -308.5 l 6,8,9
 951 -292.5 951 -292.5 939 -272.5 c 6,10,-1
 927 -236.5 l 5,11,-1
 927 -216.5 l 5,12,-1
 923 -200.5 l 5,13,-1
 911 -160.5 l 5,14,-1
 879 -80.5 l 5,15,16
 791 79.5 791 79.5 603 195.5 c 5,17,18
 571 123.5 571 123.5 523 83.5 c 4,19,20
 483 51.5 483 51.5 435 39.5 c 6,21,-1
 351 31.5 l 5,22,23
 211 51.5 211 51.5 163 183.5 c 4,24,25
 143 231.5 143 231.5 151 279.5 c 4,26,27
 155 343.5 155 343.5 191 395.5 c 4,28,29
 207 419.5 207 419.5 255 455.5 c 4,30,31
 303 487.5 303 487.5 355 491.5 c 4,32,33
 403 495.5 403 495.5 467 479.5 c 5,34,-1
 471 479.5 l 5,35,-1
 475 475.5 l 5,36,-1
 523 463.5 l 5,37,-1
 527 487.5 l 5,38,-1
 531 519.5 l 5,39,-1
 527 579.5 l 6,40,41
 511 647.5 511 647.5 427 703.5 c 6,42,-1
 275 779.5 l 5,43,-1
 199 811.5 l 6,44,45
 139 839.5 139 839.5 91 887.5 c 6,46,-1
 79 903.5 l 5,47,-1
 79 907.5 l 5,48,-1
 75 915.5 l 5,49,-1
 55 939.5 l 5,50,-1
 23 951.5 l 5,51,-1
 23 951.5 l 5,52,-1
 -9 959.5 l 5,53,-1
 -29 983.5 l 5,54,-1
 -33 991.5 l 5,55,-1
 -49 1027.5 l 5,56,-1
 -65 1063.5 l 5,0,-1
327 947.5 m 5,57,58
 367 923.5 367 923.5 427 859.5 c 5,59,-1
 431 851.5 l 5,60,-1
 447 835.5 l 6,61,62
 579 687.5 579 687.5 635 531.5 c 6,63,-1
 659 439.5 l 5,64,-1
 659 427.5 l 5,65,-1
 667 379.5 l 5,66,-1
 687 355.5 l 5,67,-1
 691 351.5 l 5,68,-1
 699 343.5 l 5,69,-1
 747 291.5 l 6,70,71
 795 243.5 795 243.5 843 163.5 c 6,72,-1
 871 119.5 l 5,73,-1
 871 951.5 l 5,74,-1
 327 951.5 l 5,75,-1
 327 947.5 l 5,57,58
EndSplineSet
EndChar

StartChar: n
Encoding: 110 110 81
GlifName: n
Width: 297
VWidth: 575
Flags: W
LayerCount: 2
Fore
SplineSet
-127 1082.5 m 5,0,-1
 858.599609375 1082.5 l 5,1,-1
 1083 1082.5 l 5,2,-1
 1175.40039062 1073.70019531 l 5,3,-1
 1201.79980469 1038.5 l 5,4,-1
 1237 959.299804688 l 5,5,-1
 1039 959.299804688 l 5,6,-1
 1039 -435.5 l 5,7,-1
 1017 -422.299804688 l 6,8,9
 986.200195312 -404.700195312 986.200195312 -404.700195312 977.400390625 -387.099609375 c 6,10,-1
 968.599609375 -343.099609375 l 5,11,-1
 968.599609375 -329.900390625 l 5,12,-1
 964.200195312 -299.099609375 l 5,13,-1
 929 -145.099609375 l 6,14,15
 858.599609375 88.099609375 858.599609375 88.099609375 695.799804688 255.299804688 c 4,16,17
 572.599609375 369.700195312 572.599609375 369.700195312 440.599609375 378.5 c 5,18,19
 489 321.299804688 489 321.299804688 502.200195312 264.099609375 c 4,20,21
 506.599609375 224.5 506.599609375 224.5 502.200195312 184.900390625 c 4,22,23
 484.599609375 39.7001953125 484.599609375 39.7001953125 339.400390625 4.5 c 5,24,-1
 260.200195312 -4.2998046875 l 6,25,26
 189.799804688 0.099609375 189.799804688 0.099609375 137 39.7001953125 c 4,27,28
 101.799804688 70.5 101.799804688 70.5 79.7998046875 105.700195312 c 4,29,30
 44.599609375 167.299804688 44.599609375 167.299804688 49 250.900390625 c 4,31,32
 57.7998046875 396.099609375 57.7998046875 396.099609375 167.799804688 484.099609375 c 4,33,34
 264.599609375 567.700195312 264.599609375 567.700195312 387.799804688 558.900390625 c 4,35,36
 603.400390625 550.099609375 603.400390625 550.099609375 814.599609375 259.700195312 c 5,37,-1
 801.400390625 281.700195312 l 6,38,39
 805.799804688 268.5 805.799804688 268.5 814.599609375 259.700195312 c 6,40,-1
 832.200195312 228.900390625 l 6,41,42
 885 154.099609375 885 154.099609375 898.200195312 110.099609375 c 5,43,-1
 902.599609375 110.099609375 l 5,44,-1
 902.599609375 959.299804688 l 5,45,-1
 211.799804688 959.299804688 l 5,46,-1
 22.599609375 959.299804688 l 5,47,-1
 -65.400390625 963.700195312 l 5,48,-1
 -91.7998046875 1003.29980469 l 5,49,-1
 -127 1082.5 l 5,0,-1
EndSplineSet
EndChar

StartChar: p
Encoding: 112 112 83
GlifName: p
Width: 326
VWidth: 575
Flags: W
LayerCount: 2
Fore
SplineSet
962 1191 m 5,0,-1
 1086 1075 l 5,1,-1
 1210 1063 l 5,2,-1
 1230 1031 l 5,3,-1
 1266 955 l 5,4,-1
 1086 955 l 5,5,-1
 1086 -313 l 5,6,-1
 1006 -257 l 5,7,-1
 966 -221 l 5,8,-1
 962 -157 l 5,9,-1
 962 -29 l 5,10,-1
 962 307 l 5,11,-1
 962 479 l 5,12,-1
 930 543 l 5,13,-1
 850 655 l 5,14,-1
 846 655 l 5,15,-1
 746 555 l 5,16,-1
 522 335 l 5,17,-1
 438 251 l 5,18,-1
 394 219 l 5,19,-1
 334 231 l 5,20,-1
 214 263 l 5,21,-1
 254 315 l 5,22,-1
 286 355 l 6,23,24
 346 431 346 431 358 487 c 4,25,26
 366 535 366 535 342 575 c 4,27,28
 302 631 302 631 206 599 c 5,29,-1
 206 599 l 5,30,-1
 182 591 l 5,31,-1
 110 571 l 5,32,-1
 86 571 l 6,33,34
 18 579 18 579 -2 635 c 6,35,-1
 -6 687 l 5,36,-1
 10 759 l 6,37,38
 66 951 66 951 290 1003 c 6,39,-1
 342 1015 l 5,40,-1
 374 1019 l 6,41,42
 618 1035 618 1035 830 823 c 6,43,-1
 834 819 l 5,44,-1
 854 795 l 5,45,-1
 870 775 l 6,46,47
 938 691 938 691 958 631 c 5,48,-1
 962 631 l 5,49,-1
 962 1191 l 5,0,-1
414 471 m 5,50,-1
 594 647 l 5,51,-1
 722 775 l 5,52,-1
 614 843 l 6,53,54
 534 883 534 883 450 891 c 4,55,56
 310 903 310 903 246 811 c 4,57,58
 230 787 230 787 222 735 c 5,59,60
 354 727 354 727 402 555 c 4,61,62
 402 547 402 547 406 539 c 6,63,-1
 414 471 l 5,50,-1
EndSplineSet
EndChar

StartChar: q
Encoding: 113 113 84
GlifName: q
Width: 0
Flags: W
LayerCount: 2
Fore
SplineSet
1501 3625 m 2,1,-1
 1501 3319 l 1,2,-1
 1492 3310 l 1,3,4
 1016 3310 1016 3310 727 3175 c 1,5,6
 499 3063 499 3063 394 2761 c 1,7,8
 365 2500 365 2500 349 2500 c 2,9,-1
 205 2500 l 1,10,-1
 196 2509 l 1,11,12
 196 2811 196 2811 394 3094 c 1,13,14
 851 3643 851 3643 1474 3643 c 0,15,0
 1501 3643 1501 3643 1501 3625 c 2,1,-1
EndSplineSet
Validated: 1
EndChar

StartChar: s
Encoding: 115 115 86
GlifName: s
Width: 335
VWidth: 575
Flags: W
LayerCount: 2
Fore
SplineSet
-122 1013.5 m 1,0,-1
 898 1013.5 l 1,1,-1
 1126 1013.5 l 1,2,-1
 1214 1005.5 l 1,3,-1
 1238 973.5 l 1,4,-1
 1270 901.5 l 1,5,-1
 1090 901.5 l 1,6,-1
 1090 -366.5 l 1,7,-1
 1050 -338.5 l 1,8,-1
 1010 -310.5 l 1,9,-1
 998 -298.5 l 1,10,-1
 994 -298.5 l 1,11,-1
 970 -274.5 l 1,12,-1
 966 -250.5 l 1,13,-1
 966 -234.5 l 1,14,-1
 966 -222.5 l 1,15,-1
 966 -130.5 l 1,16,-1
 966 197.5 l 1,17,-1
 966 285.5 l 1,18,-1
 962 341.5 l 1,19,20
 942 393.5 942 393.5 906 421.5 c 2,21,-1
 898 429.5 l 1,22,-1
 890 433.5 l 1,23,-1
 846 457.5 l 1,24,-1
 802 465.5 l 1,25,-1
 758 457.5 l 2,26,27
 726 453.5 726 453.5 686 409.5 c 0,28,29
 626 349.5 626 349.5 546 241.5 c 2,30,-1
 534 225.5 l 1,31,-1
 450 121.5 l 1,32,-1
 426 93.5 l 2,33,34
 366 33.5 366 33.5 318 33.5 c 2,35,-1
 290 41.5 l 1,36,-1
 262 61.5 l 1,37,-1
 250 69.5 l 1,38,-1
 130 185.5 l 1,39,-1
 94 221.5 l 2,40,41
 46 273.5 46 273.5 26 321.5 c 1,42,-1
 86 349.5 l 1,43,44
 126 297.5 126 297.5 186 253.5 c 2,45,-1
 202 241.5 l 1,46,-1
 242 221.5 l 1,47,-1
 290 237.5 l 2,48,49
 326 253.5 326 253.5 374 301.5 c 2,50,-1
 466 397.5 l 1,51,-1
 478 413.5 l 1,52,-1
 502 449.5 l 1,53,-1
 506 469.5 l 1,54,-1
 502 493.5 l 1,55,-1
 474 589.5 l 1,56,57
 406 725.5 406 725.5 266 765.5 c 1,58,-1
 202 773.5 l 1,59,-1
 114 789.5 l 2,60,61
 58 809.5 58 809.5 22 849.5 c 2,62,-1
 10 869.5 l 1,63,-1
 -6 889.5 l 1,64,-1
 -34 901.5 l 1,65,-1
 -38 901.5 l 1,66,-1
 -54 905.5 l 1,67,-1
 -66 909.5 l 1,68,-1
 -86 933.5 l 1,69,-1
 -90 941.5 l 1,70,-1
 -106 977.5 l 1,71,-1
 -122 1013.5 l 1,0,-1
410 901.5 m 1,72,73
 502 781.5 502 781.5 546 641.5 c 2,74,-1
 554 605.5 l 1,75,-1
 562 553.5 l 1,76,-1
 570 509.5 l 1,77,-1
 610 557.5 l 1,78,-1
 614 561.5 l 1,79,-1
 630 577.5 l 2,80,81
 734 673.5 734 673.5 822 645.5 c 2,82,-1
 862 625.5 l 2,83,84
 886 609.5 886 609.5 914 577.5 c 2,85,-1
 962 497.5 l 1,86,-1
 966 497.5 l 1,87,-1
 966 901.5 l 1,88,-1
 410 901.5 l 1,72,73
EndSplineSet
EndChar

StartChar: u
Encoding: 117 117 88
GlifName: u
Width: 2
Flags: W
LayerCount: 2
Fore
SplineSet
-643 2303 m 1,0,-1
 -707 2225 l 1,1,-1
 -759 2167 l 1,2,3
 -781 2155 -781 2155 -793 2155 c 0,4,5
 -809 2155 -809 2155 -877 2235 c 2,6,-1
 -940 2307 l 1,7,-1
 -940 2344 l 1,8,-1
 -865 2446 l 2,9,10
 -837 2484 -837 2484 -809 2500 c 1,11,12
 -781 2500 -781 2500 -643 2344 c 1,13,-1
 -641 2323 l 1,14,-1
 -643 2303 l 1,0,-1
EndSplineSet
Validated: 1
EndChar

StartChar: w
Encoding: 119 119 90
GlifName: w
Width: 0
Flags: W
LayerCount: 2
Fore
SplineSet
-43 3643 m 1,0,-1
 1550 3643 l 1,1,-1
 1568 3625 l 1,2,-1
 1568 3328 l 1,3,-1
 1550 3310 l 1,4,-1
 -43 3310 l 1,5,-1
 -61 3328 l 1,6,-1
 -61 3625 l 1,7,-1
 -43 3643 l 1,0,-1
EndSplineSet
Validated: 1
EndChar

StartChar: x
Encoding: 120 120 91
GlifName: x
Width: 1582
Flags: W
LayerCount: 2
Fore
SplineSet
341 892 m 1,0,-1
 425 972 l 1,1,-1
 792 605 l 1,2,-1
 1158 972 l 1,3,-1
 1242 892 l 1,4,-1
 871 523 l 1,5,-1
 1242 155 l 1,6,-1
 1158 75 l 1,7,-1
 792 441 l 1,8,-1
 425 75 l 1,9,-1
 341 155 l 1,10,-1
 710 523 l 1,11,-1
 341 892 l 1,0,-1
EndSplineSet
Validated: 1
EndChar

StartChar: bar
Encoding: 124 124 95
GlifName: bar
Width: 1582
Flags: W
LayerCount: 2
Fore
SplineSet
879 -3 m 1,0,-1
 703 184 l 1,1,-1
 703 1397 l 1,2,-1
 879 1231 l 1,3,-1
 879 -3 l 1,0,-1
EndSplineSet
Validated: 1
EndChar

StartChar: asciitilde
Encoding: 126 126 97
GlifName: asciitilde
Width: 8
Flags: W
LayerCount: 2
Fore
SplineSet
12022 -2000 m 1,0,-1
 12258 -2000 l 1,1,2
 11773 -2273 11773 -2273 11123 -2456 c 0,3,4
 10198 -2717 10198 -2717 8941.5 -2858.5 c 128,-1,5
 7685 -3000 7685 -3000 6333 -3000 c 0,6,7
 4356 -3000 4356 -3000 2727 -2722.5 c 128,-1,8
 1098 -2445 1098 -2445 396 -2000 c 1,9,-1
 664 -2000 l 1,10,11
 1098 -2222 1098 -2222 1850.5 -2365.5 c 128,-1,12
 2603 -2509 2603 -2509 3757 -2579.5 c 128,-1,13
 4911 -2650 4911 -2650 6168 -2650 c 0,14,15
 7532 -2650 7532 -2650 8648 -2590 c 0,16,17
 9528 -2543 9528 -2543 10060.5 -2476 c 128,-1,18
 10593 -2409 10593 -2409 11084.5 -2295.5 c 128,-1,19
 11576 -2182 11576 -2182 12022 -2000 c 1,0,-1
EndSplineSet
Validated: 1
EndChar

StartChar: quoteright
Encoding: 8217 8217 182
GlifName: quoteright
Width: 1582
VWidth: 575
Flags: W
LayerCount: 2
Fore
SplineSet
88.453125 1459.99804688 m 5,0,-1
 1116.27734375 1459.99804688 l 5,1,-1
 1362.95507812 1459.99804688 l 5,2,-1
 1460.59765625 1449.71972656 l 5,3,-1
 1491.43261719 1408.60644531 l 5,4,-1
 1532.546875 1316.10351562 l 5,5,-1
 1301.28613281 1316.10351562 l 5,6,-1
 1301.28613281 -312.998046875 l 5,7,-1
 1280.72851562 -302.719726562 l 6,8,9
 1244.75488281 -282.163085938 1244.75488281 -282.163085938 1229.33789062 -256.466796875 c 6,10,-1
 1224.19921875 -235.911132812 l 5,11,-1
 1219.06054688 -215.35546875 l 5,12,-1
 1213.92089844 -194.797851562 l 5,13,-1
 1183.08691406 -92.015625 l 6,14,15
 1147.11230469 15.904296875 1147.11230469 15.904296875 1034.05175781 134.104492188 c 4,16,17
 859.321289062 313.973632812 859.321289062 313.973632812 612.642578125 432.173828125 c 5,18,-1
 437.913085938 493.842773438 l 5,19,-1
 401.939453125 504.12109375 l 5,20,-1
 396.80078125 504.12109375 l 5,21,-1
 391.662109375 504.12109375 l 5,22,-1
 386.522460938 509.260742188 l 5,23,-1
 335.130859375 524.678710938 l 5,24,-1
 304.295898438 565.791015625 l 5,25,-1
 283.740234375 591.487304688 l 5,26,-1
 258.044921875 632.599609375 l 5,27,-1
 206.653320312 719.96484375 l 5,28,29
 540.696289062 935.807617188 540.696289062 935.807617188 761.678710938 1043.72851562 c 6,30,-1
 1003.21777344 1141.37304688 l 5,31,-1
 1044.33007812 1156.79101562 l 5,32,-1
 1064.88574219 1161.9296875 l 5,33,-1
 1126.5546875 1187.625 l 6,34,35
 1147.11230469 1203.04199219 1147.11230469 1203.04199219 1147.11230469 1259.57226562 c 6,36,-1
 1147.11230469 1264.7109375 l 5,37,-1
 1147.11230469 1269.85058594 l 5,38,-1
 1147.11230469 1274.98828125 l 5,39,-1
 1141.97265625 1285.26855469 l 5,40,-1
 1141.97265625 1316.10351562 l 5,41,-1
 443.052734375 1316.10351562 l 5,42,-1
 247.766601562 1316.10351562 l 5,43,-1
 160.40234375 1321.2421875 l 5,44,-1
 129.567382812 1367.49414062 l 5,45,-1
 88.453125 1459.99804688 l 5,0,-1
489.305664062 663.434570312 m 5,46,47
 571.53125 648.017578125 571.53125 648.017578125 689.73046875 565.791015625 c 4,48,49
 802.791015625 498.982421875 802.791015625 498.982421875 915.8515625 391.060546875 c 260,50,51
 1028.91308594 283.139648438 1028.91308594 283.139648438 1141.97265625 134.104492188 c 5,52,-1
 1141.97265625 987.19921875 l 5,53,54
 890.157226562 899.834960938 890.157226562 899.834960938 674.314453125 776.495117188 c 6,55,-1
 612.642578125 745.66015625 l 5,56,-1
 540.696289062 704.547851562 l 5,57,-1
 489.305664062 663.434570312 l 5,46,47
499.583007812 185.49609375 m 6,58,-1
 530.41796875 190.635742188 l 5,59,-1
 566.391601562 185.49609375 l 6,60,61
 669.173828125 164.939453125 669.173828125 164.939453125 679.452148438 41.6015625 c 4,62,63
 679.452148438 -76.59765625 679.452148438 -76.59765625 561.251953125 -102.293945312 c 6,64,-1
 530.41796875 -107.432617188 l 5,65,-1
 494.4453125 -102.293945312 l 6,66,67
 391.662109375 -81.73828125 391.662109375 -81.73828125 381.3828125 41.6015625 c 4,68,69
 381.3828125 159.80078125 381.3828125 159.80078125 499.583007812 185.49609375 c 6,58,-1
EndSplineSet
EndChar

